<?xml version="1.0" encoding="iso-8859-1"?>
<!-- Generator: Adobe Illustrator 16.0.0, SVG Export Plug-In . SVG Version: 6.00 Build 0)  -->
<!DOCTYPE svg PUBLIC "-//W3C//DTD SVG 1.1//EN" "http://www.w3.org/Graphics/SVG/1.1/DTD/svg11.dtd">
<svg version="1.1" id="Capa_1" xmlns="http://www.w3.org/2000/svg" xmlns:xlink="http://www.w3.org/1999/xlink" x="0px" y="0px"
	 width="392.322px" height="392.322px" viewBox="0 0 392.322 392.322" style="enable-background:new 0 0 392.322 392.322;"
	 xml:space="preserve">
<g>
	<path d="M376.419,311.949c2.448-9.18-3.06-17.748-12.239-20.196c-9.792-2.447-18.973,3.061-23.257,11.628
		c-2.447,5.509-3.06,11.629-2.447,17.748c-11.017-9.18-22.645-14.075-34.885-18.972c14.076-9.18,22.032-36.107,4.284-44.063
		c-9.18-4.284-15.912,4.283-18.972,12.239c-3.672,8.568-3.672,18.36,0,26.929c-6.12-2.448-11.628-4.896-17.748-8.568
		c-7.344-4.284-12.24-9.792-16.524-15.912c7.956-2.448,15.912-6.731,21.421-12.24c6.731-6.731,11.016-18.972,3.672-26.928
		c-6.12-7.344-17.137-6.12-24.48-0.612c-6.12,4.896-9.792,11.628-11.628,18.973c-4.284-9.181-7.956-18.36-14.688-25.704
		c0-0.612,0.612-1.225,0.612-1.836c-2.448-66.708,81.396-177.48-14.076-218.484C189.76-5.067,156.1-0.783,135.292,18.801
		c-20.196,18.972-18.36,45.288-9.792,68.544c-18.972-14.688-43.452-25.092-67.32-15.3c-24.48,10.404-39.168,37.944-42.228,63.036
		c-9.18,80.784,83.844,102.204,145.656,89.352c0.612,0,1.224-0.612,1.836-1.225c7.344,0,13.464-0.611,21.42-0.611
		c25.092,1.224,37.944,14.076,48.348,34.884c0,0,0,0.612,0.612,0.612c-7.344-1.225-15.3-0.612-22.032,4.283
		c-6.12,4.896-9.792,14.076-6.12,21.42c3.672,7.345,12.853,9.792,20.196,7.345c7.956-2.448,13.464-10.404,16.524-17.748
		c5.508,7.956,11.628,15.3,20.195,20.195c4.896,3.061,10.404,5.509,15.912,7.345c-3.06,2.447-6.12,4.896-9.18,7.344
		c-3.061,3.06-7.344,6.12-9.18,10.404c-2.448,6.731,3.06,12.239,9.792,12.852c12.852,0.612,28.764-11.016,26.928-24.479
		c8.567,2.447,16.523,5.508,23.868,10.403c4.283,3.061,7.956,6.12,12.239,9.181h-0.611c-8.568-0.612-17.748,4.896-21.42,12.852
		c-3.672,7.344-1.225,17.748,6.12,22.032c7.956,4.284,18.359,1.224,24.479-4.896c2.448-2.448,6.12-7.344,7.344-11.628
		c9.181,13.464,15.912,28.764,19.584,45.288c0.612,3.672,5.509,1.836,4.896-1.224c-3.061-19.584-10.404-36.721-22.032-52.021l0,0
		C362.343,331.533,373.972,322.353,376.419,311.949z M220.972,218.313c-0.612-0.612-1.225-1.224-1.836-1.224
		c-15.912-9.793-41.004-6.12-59.364,0c-47.736-1.837-118.728,4.283-132.804-55.692c-6.732-27.54,5.508-62.424,29.988-77.112
		c26.928-15.912,51.408,2.448,74.664,15.3c2.448,1.224,5.508-1.836,3.672-4.284c-3.672-16.524-9.792-34.272-4.896-50.796
		c5.508-17.748,25.092-29.988,42.228-33.66c42.229-9.792,77.725,24.48,79.561,64.872
		C255.244,125.289,219.748,167.517,220.972,218.313z M239.944,268.497c-3.061,4.284-6.12,9.181-10.404,12.853
		c-3.672,2.447-12.24,4.896-14.076-1.225c-1.224-4.896,3.061-9.18,6.732-11.628c4.896-2.447,11.016-2.447,17.136-2.447
		C239.332,266.661,239.944,267.273,239.944,268.497L239.944,268.497z M250.348,264.825c-0.612-1.224-1.225-2.448-1.836-3.672
		c0.611-6.731,3.06-13.464,7.955-18.36c4.896-6.119,22.032-12.239,20.196,2.448C274.828,257.481,261.364,261.153,250.348,264.825z
		 M273.604,322.353c-3.061,0-2.448-0.612-1.225-3.061c1.225-1.836,3.061-3.06,4.284-4.896c3.061-3.672,6.12-7.344,9.18-11.628
		c1.837,0.611,3.673,1.224,5.509,1.836C293.188,314.397,282.171,321.741,273.604,322.353z M294.412,298.485
		c-0.612,0-0.612-0.612-1.224-0.612c0-0.611,0.611-1.224,0.611-1.224c-1.224-6.12-1.224-12.24,0.612-18.36
		c1.225-4.896,8.568-20.195,14.076-9.792C315.22,282.573,299.919,289.305,294.412,298.485z M340.923,345.609
		c-3.06,4.284-8.567,7.956-14.075,7.956c-6.12,0-7.956-6.732-4.896-11.628c3.06-4.896,8.568-6.732,13.464-9.18
		c1.836-1.225,1.836-2.448,1.225-3.673c3.06,3.061,6.119,6.12,8.567,9.181C343.984,340.101,343.372,343.161,340.923,345.609z
		 M347.043,329.084c-0.611-5.508-1.224-10.403,0-15.911c1.836-7.345,7.345-15.301,15.912-12.853
		c11.628,2.448,5.508,14.688-0.612,19.584c-4.283,3.672-9.791,6.732-12.852,11.628C348.268,330.309,347.656,329.697,347.043,329.084
		z"/>
</g>
<g>
</g>
<g>
</g>
<g>
</g>
<g>
</g>
<g>
</g>
<g>
</g>
<g>
</g>
<g>
</g>
<g>
</g>
<g>
</g>
<g>
</g>
<g>
</g>
<g>
</g>
<g>
</g>
<g>
</g>
</svg>
