<?xml version="1.0" encoding="iso-8859-1"?>
<!-- Generator: Adobe Illustrator 16.0.0, SVG Export Plug-In . SVG Version: 6.00 Build 0)  -->
<!DOCTYPE svg PUBLIC "-//W3C//DTD SVG 1.1//EN" "http://www.w3.org/Graphics/SVG/1.1/DTD/svg11.dtd">
<svg version="1.1" id="Capa_1" xmlns="http://www.w3.org/2000/svg" xmlns:xlink="http://www.w3.org/1999/xlink" x="0px" y="0px"
	 width="369.658px" height="369.658px" viewBox="0 0 369.658 369.658" style="enable-background:new 0 0 369.658 369.658;"
	 xml:space="preserve">
<g>
	<g>
		<path d="M284.842,101.359c2.447-17.748-17.137-31.824-33.66-33.66c-7.345-0.612-15.912,2.448-21.42,7.956c0-0.612,0-1.224,0-1.836
			c0-1.836-0.612-4.284-0.612-6.732c4.284-1.224,7.344-4.896,8.568-9.792c1.836-9.792-6.12-19.584-12.853-25.704
			c-11.016-8.568-41.616-15.912-46.512,3.672c-7.956-1.224-15.912,0-21.42,7.344c-4.284,6.12-3.06,15.912,2.448,20.808
			c-1.836,1.836-3.06,3.672-4.284,6.732c-4.284-12.852-15.912-21.42-29.988-20.196S96.957,64.027,98.793,78.715
			c0.612,3.672,4.896,4.284,6.12,0.612c3.06-9.18,8.568-18.972,18.972-20.808c11.628-2.448,22.644,6.12,25.704,17.136v0.612
			c0,0,0,0-0.612,0c-2.448,1.224-1.836,4.896,0.612,5.508c1.224,0.612,3.06,0.612,4.284,1.224c0.612,1.836,1.836,3.672,3.06,4.896
			c-3.06,1.224-6.12,3.06-7.956,5.508c-7.956,9.792-2.448,26.928,9.792,30.6c-6.12,6.732-6.732,17.136-1.224,23.868
			c-3.06-3.06-7.344-4.284-12.24-4.284c-9.792,0.612-19.584,13.464-16.524,23.256c-4.896,0-9.18,0.612-13.464,3.06
			c-1.836-7.956-0.612-16.524,4.284-23.868c1.224-0.612,1.836-1.836,3.06-3.06v-0.612c7.956-7.344,17.748-6.732,27.54-6.732
			c2.448,0,3.672-3.672,1.224-4.896c-11.016-7.344-26.928-1.836-35.496,6.732c-0.612,0.612-1.224,1.836-1.836,2.448
			c-5.508,1.224-10.404,2.448-15.3-1.836c-4.896-4.284-5.508-11.628-4.284-17.748c0.612-0.612,0.612-1.224,0.612-1.836
			c0,0,0,0,0-0.612c0.612-1.224-0.612-1.836-1.836-1.836c-6.732-3.06-11.628-11.628-7.344-18.36
			c4.284-6.732,13.464-7.344,20.808-4.896c0,1.224,1.836,1.836,3.06,1.224c0.612,0.612,1.836,0.612,2.448,1.224
			c1.836,1.224,3.672-1.836,2.448-3.06c-1.224-1.224-2.448-1.836-3.672-2.448c3.06-9.18,11.628-17.748,22.032-12.24
			c11.016,5.508,7.956,21.42-4.284,23.256c-1.836,0-1.224,3.06,0,3.672c0.612,4.284-1.224,9.792-5.508,11.628
			c-2.448,1.224-4.896,1.224-6.732,0.612c-3.06-0.612-2.448-2.448-3.672-5.508c-0.612-2.448-4.284-1.836-4.284,0.612
			c0,1.836,0,4.896,0.612,6.732c0.612,1.836,3.06,3.06,4.896,3.672c3.672,1.836,7.956,1.836,11.628,0
			c7.344-3.06,10.404-10.404,7.956-17.748c13.464-2.448,17.136-22.032,4.896-30.6c-12.852-9.18-29.988,0-32.436,14.076
			c-9.792-4.284-22.644-3.06-28.152,7.956c-4.284,9.18,0,23.256,10.404,25.092c-3.672,7.344-1.836,17.136,4.896,23.256
			c3.672,3.06,9.792,5.508,15.3,5.508c-2.448,7.956-1.836,16.524,1.836,23.868c-5.508,5.508-7.956,13.463-6.12,20.808
			c2.448,11.016,17.136,17.136,25.704,11.628c1.224,4.896,4.284,9.18,8.568,11.628c7.956,4.896,20.808,3.06,28.152-3.672
			c4.284,5.508,12.24,7.956,18.972,4.896c6.12-3.06,9.792-8.567,11.628-15.3c1.836,6.12,6.12,11.017,13.464,13.464
			c11.017,3.672,25.704-3.672,25.093-15.912c9.792,4.284,22.031,1.225,28.151-7.955c4.284-6.732,5.508-20.196-0.612-27.541
			c6.12-1.224,11.629-4.284,15.301-9.792c1.224-1.836,2.447-4.284,3.672-6.732c7.956,0,16.523-4.896,20.196-13.464
			C309.321,120.331,299.529,103.195,284.842,101.359z M213.237,34.039c4.284,1.836,7.956,4.896,11.016,8.568
			c2.448,3.06,11.628,17.748,3.061,20.196c-1.225-1.224-2.448-1.836-3.672-0.612c0,0,0,0,0-0.612
			c2.447-16.524-17.748-25.092-30.601-19.584c-2.447-1.836-4.896-3.672-7.344-4.896C191.817,29.143,203.445,29.143,213.237,34.039z
			 M169.785,194.383c-4.284,1.836-8.568-1.224-9.18-4.896c0.612-1.836,1.224-3.672,0.612-6.12c-0.612-3.06-4.896-3.06-6.12-0.612
			c-1.224,2.447-6.12,6.731-9.18,3.672c-3.06-3.06,1.224-6.732,3.06-9.792c0.612,0,0.612-0.612,1.224-0.612
			c1.836-0.612,1.836-3.672,0-4.284c-2.448-0.612-4.896-1.224-7.344,0c-2.448,1.224-4.284,3.06-5.508,5.508
			c-2.448,4.896-1.836,11.016,1.836,15.3c4.284,4.284,11.628,4.284,16.524,1.224c1.224,3.061,3.672,5.508,6.732,7.345
			c1.224,0.611,2.448,0.611,3.672,0.611c-0.612,1.225-0.612,2.448-0.612,3.061c-6.12,3.06-11.016,8.567-18.36,6.731
			c-6.732-1.224-12.24-9.792-9.18-16.523c0.612-1.836-1.224-4.284-3.06-2.448c-1.224,1.224-1.836,2.448-2.448,3.06c0,0,0,0-0.612,0
			c-7.344,6.732-18.36,3.061-18.36-7.344c0-11.016,12.852-17.136,22.644-17.136c1.836,0,2.448-3.06,0.612-3.672
			c-0.612,0-1.224-0.612-1.836-0.612c0-6.732,1.224-14.688,9.18-17.136c7.956-2.448,15.3,6.12,14.076,13.464l0,0
			c-2.448,0.612-3.06,3.672-1.224,5.508c5.508,5.508,15.3,6.12,16.524,15.912C174.069,188.263,172.845,192.547,169.785,194.383z
			 M186.921,207.234c-4.284,4.896-12.24,5.509-15.3,0.612c0-1.224-0.612-1.836-1.224-2.448c0-1.224,0-1.836,0-3.06l0,0
			c3.672-0.612,6.732-3.061,9.18-6.732c3.672-6.12,3.06-14.688-0.612-20.808c-3.06-4.284-8.568-9.18-14.688-10.404
			c0.612-4.896-0.612-9.18-3.672-12.852c0.612,0.612,1.224,1.224,1.836,1.836c9.18,5.508,24.48,1.224,28.153-9.18
			c1.224,1.224,3.06,2.448,4.896,3.06c0,0,0.612,0,1.224,0c-7.344,2.448-14.076,7.956-15.912,17.136
			c-1.836,7.344,2.448,15.912,8.568,19.584c0,0,0,0.612-0.611,0.612C188.758,191.935,193.041,199.891,186.921,207.234z
			 M192.43,160.111c6.119-8.568,17.748-7.344,26.928-4.896c0,0,0,0.612,0.612,0.612c1.224,1.836,3.672,2.448,5.508,0.612
			c3.06-3.06,3.06-5.508,7.344-6.12c4.896-0.612,9.18,1.224,12.24,4.896c3.672,3.672,6.731,9.18,4.284,14.688
			c-2.448,4.284-9.181,6.732-12.853,1.836c-0.611-0.612-0.611-0.612-1.224-0.612c-1.225-0.612-2.448-0.612-3.672,0.612
			c-3.061,3.06-5.508,9.18-10.404,8.568c-5.508-0.612-5.508-8.568,0-8.568c3.672,0,3.672-4.284,0.612-5.508
			c-5.509-2.448-11.017,1.224-13.464,6.12c-1.225,1.836-1.225,4.284-0.612,6.12c-0.612-0.612-1.836-1.224-3.061-1.224
			C192.43,179.695,185.084,169.291,192.43,160.111z M258.525,186.427c-4.284,8.568-15.3,11.628-23.868,7.344
			c-0.612,0-0.612,0-1.224,0c-1.836-0.611-3.061,0.612-3.672,2.448c-0.612,9.792-9.792,16.524-18.973,11.016
			c-7.956-4.283-9.18-14.688-7.344-22.644c1.224-0.612,1.836-1.224,3.06-1.836c0.612-0.612,0.612-1.224,1.225-1.224
			c0.612,1.836,2.448,3.671,3.672,4.896c4.284,3.672,9.792,4.284,15.3,1.836c4.284-1.836,9.18-6.12,9.792-11.628
			c3.672,2.448,9.18,2.448,13.464,0c3.672-1.836,5.508-4.284,6.732-7.344c1.224,1.836,1.836,3.06,2.448,4.896
			C260.361,178.471,260.361,182.755,258.525,186.427z M273.213,150.319c-2.447,4.896-7.344,7.956-12.852,9.18
			c-1.224,0-1.836,1.224-2.448,1.836l0,0c0,0,0,0-0.611,0c-0.612-2.448-1.225-4.284-2.448-6.12
			c-0.612-1.224-1.836-2.448-2.448-3.672c3.672,0,7.344-1.224,10.404-3.06c1.836-1.224,3.672-3.06,4.896-4.896
			c1.836,1.836,3.672,3.06,5.508,3.672C274.438,147.871,273.825,149.095,273.213,150.319z M295.857,128.899
			c-1.224,6.12-6.12,9.792-11.628,11.016c-0.612-1.836-1.225-3.06-2.448-4.896c-1.224-1.224-4.284-1.224-5.508,0.612
			c-0.612,1.224-0.612,1.836-1.225,3.06c-1.224-0.612-3.06-1.224-4.283-2.448c0-1.836-0.612-3.672-2.448-4.896
			c-0.612-0.612-1.836-0.612-2.448,0c-1.836,1.224-1.836,3.06-3.06,4.896c-0.612,2.448-1.836,4.284-3.672,5.508
			c-3.672,3.672-8.568,4.896-13.464,3.06c-0.612,0-0.612,0-1.225,0c-3.672-1.836-8.568-3.06-12.852-3.06
			c-3.672,0.612-10.404,3.06-12.853,6.732c-2.448-1.224-5.508-1.836-7.956-2.448c2.448-1.224,4.896-2.448,7.345-3.672
			c4.896-3.672,9.18-9.792,11.016-16.524c2.448-1.224,3.06-4.896,4.896-7.344c0.612-1.224,1.836-2.448,3.061-3.672
			c0.612,1.836,3.672,1.836,3.672-0.612c0-0.612,0-1.224,0-1.836h0.612c1.836-0.612,1.224-3.06-0.612-3.672
			c0-2.448,0.612-4.896,2.448-7.344c3.06-4.896,7.956-7.344,13.464-5.508c6.731,2.448,10.404,11.016,6.12,16.524
			c-1.225,0-2.448,0.612-3.672,1.224c-1.225,1.224-1.836,2.448-1.225,4.284c0,1.836,1.225,3.672,3.061,3.06
			c1.836,2.448-1.836,6.12-3.672,7.344s-3.673,2.448-6.12,1.836c-1.836-0.612-2.448-3.06-1.836-4.896
			c1.224-2.448-1.836-4.896-3.672-3.06c-3.061,3.06-2.448,7.956,0,11.628c3.672,4.284,10.403,4.284,15.3,1.224
			c4.896-2.448,9.792-7.956,9.18-14.076c0-1.836-1.224-3.672-2.448-5.508c6.12-7.956,4.284-21.42-7.344-24.48
			s-25.092,6.732-25.092,18.36c-2.448,1.224-4.284,2.448-6.12,4.284c-1.224-4.284-3.06-7.956-7.344-11.016
			c-1.836-1.224-4.284,1.224-3.672,3.06c1.224,8.568,4.283,15.912,0,24.48c-1.837,3.672-5.509,6.732-9.181,8.568
			c-2.448,1.224-17.136,6.12-15.912-1.836c0.612-3.06-3.672-4.284-4.896-1.224c0,0,0,0,0,0.612c-1.225,0-1.836,0.612-2.448,1.224
			c-3.061,6.732-11.017,14.076-18.972,9.792c-7.344-5.508-7.344-17.748-1.224-23.256c1.224-1.224,0-3.06-1.224-3.672
			c0-0.612-0.612-1.224-1.224-1.836c-7.344-3.672-12.24-12.852-7.956-20.196c4.896-7.956,17.748-7.344,23.256-0.612
			c1.224,1.836,3.672,0.612,3.672-0.612c0.612-0.612,0.612-0.612,1.224-1.224c3.672-8.568,14.076-11.016,22.032-6.12
			c3.672,2.448,7.344,6.732,6.12,11.628s-7.344,7.956-11.628,4.896c-1.836-1.224-3.672,0.612-3.672,2.448
			c-1.836-0.612-4.284,0.612-4.284,3.672c0.612,4.284,0,11.016-4.896,12.852c-4.896,1.836-9.18-4.896-7.956-9.18
			c1.224-2.448-3.06-4.896-4.896-2.448c-7.344,8.568,1.836,21.42,12.241,20.196c9.792-1.224,16.523-14.076,11.016-22.032
			c5.508,3.06,11.628,1.836,15.912-2.448c5.508-5.508,4.896-14.076,0-19.584c-8.568-10.404-32.437-11.628-36.721,3.06
			c-3.06-3.06-7.344-4.284-12.24-4.896c-0.612-2.448-1.224-4.284-3.06-6.732c-1.224-4.896-0.612-9.792,1.836-13.464
			c1.836,0,3.672,0,5.508-0.612c3.672-1.224,3.06-6.12-0.612-6.732c-11.628-0.612-8.568-14.076,0.612-16.524
			c6.12-1.224,11.628,1.224,17.136,4.284c0,1.224,0.612,2.448,2.448,2.448c0.611,0,1.224,0,1.836,0
			c0.612,0.612,1.224,0.612,2.448,1.224c1.836,1.224,4.283-0.612,4.283-2.448c1.836-0.612,3.673-0.612,6.12-0.612
			c5.509,0.612,10.404,3.672,12.24,9.18c1.224,3.672,0.612,8.568-3.672,9.792c-3.672,0.612-7.344-0.612-8.568-4.284
			c-0.611-2.448-4.284-1.836-4.284,0.612c0,1.836,0,3.06,0.612,4.284c-3.06,1.224-7.956,4.896-11.016,3.672
			c-1.225-0.612-3.061-3.06-1.836-4.284c2.448-2.448-0.612-6.12-3.673-4.896c-6.12,3.06-4.896,11.016-0.612,14.688
			c6.121,5.508,16.524,2.448,21.42-3.06c0.612-0.612,0.612-1.224,0.612-1.836c1.836,0.612,3.672,1.224,5.508,1.836
			c5.508,0.612,9.792-1.836,12.24-6.12c0,3.672,0.611,7.344,1.224,10.404c0,1.836,0,3.672,1.836,5.508c0,0,0.612,0,0.612,0.612
			c-1.836,4.284-1.836,9.18,0.611,14.688c1.225,2.448,4.896,0.612,4.284-1.836c-3.06-16.524,12.853-25.704,27.54-19.584
			c9.792,4.284,19.584,14.076,21.42,25.092c-0.611,0-1.224,0-1.836,0c-1.836,0.612-1.224,2.448,0,3.06
			c0.612,0,1.836,0.612,2.448,0.612c0.612,1.224,1.836,1.836,3.06,1.224C290.961,111.151,298.306,118.495,295.857,128.899z"/>
		<path d="M335.025,141.751c-1.224-7.956-6.732-13.464-10.404-20.196c-8.567-15.3-9.18-27.54-12.852-44.676
			c-3.061-12.852-6.12-25.092-18.973-31.212c-10.403-4.896-12.239,0.612-22.031-1.836c-26.316-6.732-25.092-15.912-41.616-29.988
			c-11.628-10.404-26.928-15.3-42.229-13.464c-19.584,1.836-37.944,25.704-55.08,28.152c-0.612,0-1.836,0-2.448,0
			c-0.612,0-1.224,0-1.836,0c-0.612,0-0.612,0-0.612,0c-28.764,1.836-69.768,0-78.336,33.66c-4.284,17.136,3.06,32.436-2.448,50.796
			c-3.672,12.24-10.404,22.644-11.628,35.496c-1.224,13.464,1.836,23.868,11.628,33.66c6.12,6.12,14.688,8.568,21.42,13.464
			c5.508,3.672,10.404,7.956,14.688,12.24c26.928,50.185,63.648,96.084,75.888,152.388c0,1.225,0.612,1.836,1.224,2.448
			c0,3.061,2.448,6.12,5.508,6.732c4.896,1.224,7.956-2.448,11.628-4.896c2.448-1.224,4.896-1.224,7.344,0
			c1.836,1.225,3.06,3.061,5.508,3.672c1.225,0,2.448,0,2.448-1.224c0-0.612,0-1.224,0.612-1.224c1.224,0,1.836,0,2.447-1.225
			c6.732-11.628,11.629-23.868,17.137-36.107c1.836,6.731,3.672,13.464,6.12,19.584c1.224,2.447,5.508,2.447,4.896-0.612
			c-1.224-9.18-4.896-17.748-8.568-25.704c0.612-0.612,0.612-1.836,1.225-2.448c2.448,9.181,7.956,19.584,15.912,24.48
			c2.447,1.836,6.12-1.836,4.284-4.284c-3.061-4.284-6.732-7.956-9.792-12.24c-1.225-1.224-1.837-3.06-2.448-4.284
			c9.18,4.896,21.42,4.284,29.987-3.06c1.837-1.836,1.225-4.896-0.611-6.12c-3.672-2.448-8.568-4.284-13.464-6.12
			c8.567-2.447,16.523-7.344,22.644-13.464c1.836-1.836,1.225-6.12-1.836-6.731c-7.956-1.836-18.36-1.836-27.54,0.611
			c12.853-19.584,26.928-37.943,41.616-55.691c0.612-0.612,0.612-1.225,0.612-1.836c3.06-3.672,5.508-7.956,7.344-12.24
			c6.12-12.24,7.956-25.704,18.359-36.108c6.732-6.732,15.912-9.792,23.257-15.3C331.354,160.111,336.861,153.379,335.025,141.751z
			 M189.981,360.234c-1.836-2.447-4.897-3.672-7.957-4.283c-3.06-0.612-6.12,0-8.568,1.224c-1.836,0.612-3.06,1.836-4.284,3.06
			c-0.612,0.612-1.836,1.225-2.448,1.836c-1.224,1.225-1.836,1.225-2.448-0.611c1.224-0.612,1.224-1.836,0.612-3.061
			c-1.836-9.792-4.284-19.584-7.344-29.376c11.016,5.509,28.765,8.568,39.78,1.836C194.266,340.65,191.205,350.442,189.981,360.234z
			 M199.773,325.351L199.773,325.351c-7.344,1.225-13.464,4.896-21.42,5.508c-7.344,0.612-14.688-1.224-21.42-3.672c0,0,0,0-0.612,0
			c-0.612-1.224-1.224-3.06-1.224-4.284c14.688,3.061,31.213,4.284,45.9-0.611C200.997,323.515,200.386,324.127,199.773,325.351z
			 M202.833,318.619c-17.136,1.836-31.824,4.283-48.96,0.611c-1.224-3.06-2.448-6.731-4.284-9.792l0.612,0.612
			c17.136,4.896,35.497,6.731,52.632,3.06c0,0.612,0.612,1.225,1.225,1.225C204.058,315.559,203.445,316.783,202.833,318.619z
			 M242.613,318.619c-7.956,3.672-17.748,1.836-23.868-4.284c2.448,0,4.896,0,7.344,0
			C232.209,314.946,237.105,316.171,242.613,318.619z M237.105,294.751c4.284-1.225,9.18-1.225,13.464-0.612
			c-7.344,6.732-16.524,10.404-26.316,11.016c-0.611,0-1.224,0-1.836,0c1.225-2.447,2.448-4.283,3.672-6.119
			C229.149,297.811,232.821,295.975,237.105,294.751z M208.342,307.603c-19.584,3.061-36.721,3.672-56.305-0.611
			c-1.224,0-1.836,1.224-1.836,1.836c-9.792-22.645-22.644-45.288-36.72-66.097c9.792,10.404,20.808,18.973,34.884,23.256
			c18.972,5.509,30.6-0.611,47.125-10.403c17.748-10.404,28.152-12.24,47.736-12.853c5.508,0,9.18,0,13.464-0.611
			C238.941,259.867,220.581,283.123,208.342,307.603z M295.857,178.471c-6.732,6.731-10.404,15.912-14.688,24.48
			c-9.792,21.42-22.031,28.151-47.124,30.6c-11.016,1.224-18.359-1.224-28.764,3.672c-6.732,3.061-12.24,8.568-18.972,12.24
			c-18.361,9.792-35.497,8.567-51.409-2.448c-15.912-10.404-26.316-26.928-39.78-41.004c-9.792-9.792-19.584-15.3-29.988-23.256
			c-13.464-10.404-20.808-31.212-17.748-48.348c1.224-7.956,6.732-15.912,9.18-23.868c1.836-6.732,2.448-7.956,3.06-15.912
			c1.224-19.584-5.508-17.748,9.792-36.72c14.076-17.748,20.808-16.524,41.004-18.972c8.568-1.224,14.688-2.448,23.256-5.508
			c0,0,0,0,0.612,0c22.644-1.836,36.72-27.54,61.813-26.316c29.987,1.836,42.84,34.884,69.768,43.452
			c40.393,12.852,34.884,18.36,41.004,48.348c2.448,12.24,10.404,18.36,14.076,28.764
			C332.577,162.559,310.545,163.171,295.857,178.471z"/>
	</g>
</g>
<g>
</g>
<g>
</g>
<g>
</g>
<g>
</g>
<g>
</g>
<g>
</g>
<g>
</g>
<g>
</g>
<g>
</g>
<g>
</g>
<g>
</g>
<g>
</g>
<g>
</g>
<g>
</g>
<g>
</g>
</svg>
