<?xml version="1.0" encoding="iso-8859-1"?>
<!-- Generator: Adobe Illustrator 16.0.0, SVG Export Plug-In . SVG Version: 6.00 Build 0)  -->
<!DOCTYPE svg PUBLIC "-//W3C//DTD SVG 1.1//EN" "http://www.w3.org/Graphics/SVG/1.1/DTD/svg11.dtd">
<svg version="1.1" id="Capa_1" xmlns="http://www.w3.org/2000/svg" xmlns:xlink="http://www.w3.org/1999/xlink" x="0px" y="0px"
	 width="377.776px" height="377.776px" viewBox="0 0 377.776 377.776" style="enable-background:new 0 0 377.776 377.776;"
	 xml:space="preserve">
<g>
	<path d="M377.575,200.932L377.575,200.932c1.225-18.36-6.12-35.496-13.464-52.02c-5.508-12.852-12.24-33.048-24.479-42.228
		c-23.257-17.748-46.513,13.464-59.364,34.884c-2.448-4.896-6.12-9.792-10.404-14.688c-29.376-32.436-72.828-6.732-83.232,28.152
		c-16.524-31.212-61.812-45.9-86.904-12.24c-1.224,1.836-2.448,3.672-3.672,5.508c-12.24-12.852-32.436-25.092-50.184-20.196l0,0
		c-18.972,3.06-27.54,18.972-33.048,35.496c-6.732,18.972-18.36,52.632-9.792,72.827c4.896,11.629,16.524,15.301,26.928,7.956
		c6.12-4.283,10.404-10.403,14.076-18.359c10.404,1.836,21.42-2.448,28.764-9.792c7.344,1.836,18.36,1.224,23.868-4.896
		c1.836,4.284,3.672,7.956,5.508,11.628c15.912,25.093,53.856,44.677,82.008,50.796c1.224,0,2.448,0,3.06-0.611
		c1.224,2.448,4.284,4.284,6.732,2.448c22.032-15.912,59.976-42.841,78.948-73.44c3.672,5.508,9.792,8.568,15.911,10.404
		c4.284,1.224,8.568,0.611,13.465-0.612c2.447,1.224,4.896,2.448,7.344,3.672c9.792,3.061,18.972,0,26.315-6.731
		c4.896,6.119,11.017,12.239,17.748,15.3c7.345,3.06,14.688,0.612,19.584-5.508C377.575,212.56,378.188,207.052,377.575,200.932z
		 M85.651,208.888c-2.448,0.611-4.896,1.224-7.344,1.224c4.896-7.956,6.732-17.136,3.672-26.316
		c-1.224-3.672-6.732-3.06-6.732,1.225c0,18.971-9.792,31.824-27.54,35.496c4.896-12.853,7.344-26.929,8.568-36.72
		c0.612-4.284-4.896-6.12-6.732-1.835c-4.284,11.016-6.732,24.479-12.24,34.884c-4.896,8.567-21.42,26.928-25.704,11.016
		c-1.836-6.732,1.224-18.36,1.836-23.256c4.284-23.868,10.404-53.856,31.212-69.156c7.956,3.06,17.136,3.672,25.092,6.732
		c9.18,3.06,17.136,7.344,24.48,13.464c-4.896,14.688-3.672,33.66,0.612,49.571C91.771,205.215,89.323,207.663,85.651,208.888z
		 M267.415,189.915c-14.075,33.66-53.243,53.244-78.948,77.725c-0.612,0.611-0.612,1.224-1.224,1.224c0,0,0,0-0.612,0
		c-31.824-20.808-72.216-33.66-80.784-75.276c-4.896-24.479,0.612-53.243,29.376-56.915c29.988-3.672,41.616,22.644,48.96,45.288
		c1.224,4.284,7.956,3.671,8.567-1.224c0-3.672,0-6.732-0.611-10.404c3.672-20.196,14.076-40.392,36.107-45.288
		C266.804,117.088,279.043,161.764,267.415,189.915z M361.052,212.56c-7.956,0.611-13.464-7.345-18.36-12.853
		c-8.568-11.015-15.3-23.255-21.42-35.495c-1.836-4.284-9.18-1.224-7.956,3.06c3.06,12.24,8.568,22.643,15.912,33.047
		c1.224,1.224,1.836,3.06,3.06,4.284c-6.12,3.672-12.852,3.672-18.972,1.224c0.612-1.836-0.612-4.284-2.448-3.672
		c-1.224,0.612-1.836,0.612-3.06,0.612c-5.508-3.672-10.404-9.792-11.628-17.748c-0.612-4.284-6.732-3.06-7.345,1.224
		c0,5.507,1.225,10.404,3.673,15.299c-0.612,0-0.612,0-1.225-0.611c-5.508-1.836-9.18-5.509-13.464-8.568
		c7.344-14.076,9.792-28.764,4.896-44.063c6.119-7.956,12.239-15.912,19.584-22.644c3.06-3.672,6.731-6.732,11.016-9.792
		l19.584,4.284c1.836,1.224,3.06,2.448,4.284,4.284c1.836,2.448,3.672,4.896,5.508,7.344c1.224,1.836,2.448,4.284,3.672,6.12
		c9.792,20.196,15.912,40.392,22.645,61.811C369.619,206.439,367.783,211.335,361.052,212.56z"/>
</g>
<g>
</g>
<g>
</g>
<g>
</g>
<g>
</g>
<g>
</g>
<g>
</g>
<g>
</g>
<g>
</g>
<g>
</g>
<g>
</g>
<g>
</g>
<g>
</g>
<g>
</g>
<g>
</g>
<g>
</g>
</svg>
