<?xml version="1.0" encoding="iso-8859-1"?>
<!-- Generator: Adobe Illustrator 19.0.0, SVG Export Plug-In . SVG Version: 6.00 Build 0)  -->
<svg version="1.1" id="Capa_1" xmlns="http://www.w3.org/2000/svg" xmlns:xlink="http://www.w3.org/1999/xlink" x="0px" y="0px"
	 viewBox="0 0 512 512" style="enable-background:new 0 0 512 512;" xml:space="preserve">
<g>
	<g>
		<path d="M494.933,460.798V341.331c-0.028-23.553-19.114-42.639-42.667-42.667h-8.533V179.198
			c-0.028-23.553-19.114-42.639-42.667-42.667h-51.2v-34.133c-0.025-7.453-3.318-14.52-9.008-19.334
			c6.232-11.255,9.343-23.971,9.008-36.833c-1.098-16.461-8.051-31.986-19.6-43.767c-3.326-3.283-8.674-3.283-12,0
			c-11.549,11.781-18.502,27.306-19.6,43.767c-0.334,12.861,2.776,25.578,9.008,36.833c-5.69,4.814-8.983,11.881-9.008,19.334
			v34.133H281.6v-34.133c-0.025-7.453-3.318-14.52-9.008-19.334c6.232-11.255,9.343-23.971,9.008-36.833
			c-1.098-16.461-8.051-31.986-19.6-43.767c-3.326-3.283-8.674-3.283-12,0c-11.549,11.781-18.502,27.306-19.6,43.767
			c-0.334,12.861,2.776,25.578,9.008,36.833c-5.69,4.814-8.983,11.881-9.008,19.334v34.133h-17.067v-34.133
			c-0.025-7.453-3.318-14.52-9.008-19.334c6.232-11.255,9.343-23.971,9.008-36.833c-1.098-16.461-8.051-31.986-19.6-43.767
			c-3.326-3.283-8.674-3.283-12,0c-11.549,11.781-18.502,27.306-19.6,43.767c-0.334,12.861,2.776,25.578,9.008,36.833
			c-5.69,4.814-8.983,11.881-9.008,19.334v34.133h-51.2c-23.553,0.028-42.639,19.114-42.667,42.667v119.467h-8.533
			c-23.553,0.028-42.639,19.114-42.667,42.667v119.467C7.645,460.809,0.011,468.443,0,477.865v8.533
			c0.015,14.132,11.468,25.585,25.6,25.6h460.8c14.132-0.015,25.585-11.468,25.6-25.6v-8.533
			C511.989,468.443,504.355,460.809,494.933,460.798z M324.258,22.131L324.258,22.131c5.128,7.033,8.096,15.408,8.542,24.1
			c0,18.771-6.381,29.605-8.196,30.601l-0.044-0.005c-2.454-1.009-8.827-11.838-8.827-30.596
			C316.165,37.539,319.128,29.162,324.258,22.131z M315.733,102.398c0-4.713,3.82-8.533,8.533-8.533s8.533,3.82,8.533,8.533v34.133
			h-17.067V102.398z M255.991,22.131c5.128,7.033,8.096,15.408,8.542,24.1c0,18.771-6.381,29.605-8.196,30.601l-0.044-0.005
			c-2.454-1.009-8.827-11.838-8.827-30.596C247.898,37.539,250.861,29.162,255.991,22.131z M247.467,102.398
			c0-4.713,3.82-8.533,8.533-8.533s8.533,3.82,8.533,8.533v34.133h-17.067V102.398z M187.725,22.131
			c5.128,7.033,8.096,15.408,8.542,24.1c0,18.771-6.381,29.605-8.196,30.601l-0.044-0.005c-2.454-1.009-8.827-11.838-8.827-30.596
			C179.632,37.539,182.595,29.162,187.725,22.131z M179.2,102.398c0-4.713,3.82-8.533,8.533-8.533s8.533,3.82,8.533,8.533v34.133
			H179.2V102.398z M85.333,179.198c0.015-14.132,11.468-25.585,25.6-25.6h290.133c14.132,0.015,25.585,11.468,25.6,25.6v8.533
			c0,9.426-7.641,17.067-17.067,17.067s-17.067-7.641-17.067-17.067c0-4.713-3.82-8.533-8.533-8.533s-8.533,3.82-8.533,8.533
			c0,9.426-7.641,17.067-17.067,17.067s-17.067-7.641-17.067-17.067c0-4.713-3.821-8.533-8.533-8.533
			c-4.713,0-8.533,3.82-8.533,8.533c0,9.426-7.641,17.067-17.067,17.067s-17.067-7.641-17.067-17.067
			c0-4.713-3.82-8.533-8.533-8.533s-8.533,3.82-8.533,8.533c0,9.426-7.641,17.067-17.067,17.067s-17.067-7.641-17.067-17.067
			c0-4.713-3.82-8.533-8.533-8.533s-8.533,3.82-8.533,8.533c0,9.426-7.641,17.067-17.067,17.067
			c-9.426,0-17.067-7.641-17.067-17.067c0-4.713-3.82-8.533-8.533-8.533s-8.533,3.82-8.533,8.533
			c0,9.426-7.641,17.067-17.067,17.067c-9.426,0-17.067-7.641-17.067-17.067c0-4.713-3.82-8.533-8.533-8.533
			s-8.533,3.82-8.533,8.533c0,9.426-7.641,17.067-17.067,17.067s-17.067-7.641-17.067-17.067V179.198z M85.333,217.117
			c14.032,8.399,32.081,5.418,42.667-7.047v0c12.086,14.138,33.346,15.802,47.484,3.716c1.333-1.14,2.576-2.382,3.716-3.716
			c12.086,14.138,33.346,15.802,47.484,3.716c1.333-1.14,2.576-2.382,3.716-3.716c12.086,14.138,33.346,15.802,47.484,3.716
			c1.333-1.14,2.576-2.382,3.716-3.716c12.086,14.138,33.346,15.802,47.484,3.716c1.333-1.14,2.576-2.382,3.716-3.716
			c12.086,14.138,33.346,15.802,47.484,3.716c1.333-1.14,2.576-2.382,3.716-3.716c10.586,12.465,28.634,15.447,42.667,7.047v30.347
			H85.333V217.117z M85.333,264.531h341.333v34.133H85.333V264.531z M34.133,341.331c0.015-14.132,11.468-25.585,25.6-25.6h392.533
			c14.132,0.015,25.585,11.468,25.6,25.6v8.533c0,9.426-7.641,17.067-17.067,17.067c-9.426,0-17.067-7.641-17.067-17.067
			c0-4.713-3.82-8.533-8.533-8.533s-8.533,3.82-8.533,8.533c0,9.426-7.641,17.067-17.067,17.067s-17.067-7.641-17.067-17.067
			c0-4.713-3.82-8.533-8.533-8.533s-8.533,3.82-8.533,8.533c0,9.426-7.641,17.067-17.067,17.067s-17.067-7.641-17.067-17.067
			c0-4.713-3.821-8.533-8.533-8.533c-4.713,0-8.533,3.82-8.533,8.533c0,9.426-7.641,17.067-17.067,17.067
			s-17.067-7.641-17.067-17.067c0-4.713-3.82-8.533-8.533-8.533s-8.533,3.82-8.533,8.533c0,9.426-7.641,17.067-17.067,17.067
			s-17.067-7.641-17.067-17.067c0-4.713-3.82-8.533-8.533-8.533s-8.533,3.82-8.533,8.533c0,9.426-7.641,17.067-17.067,17.067
			c-9.426,0-17.067-7.641-17.067-17.067c0-4.713-3.82-8.533-8.533-8.533s-8.533,3.82-8.533,8.533
			c0,9.426-7.641,17.067-17.067,17.067c-9.426,0-17.067-7.641-17.067-17.067c0-4.713-3.82-8.533-8.533-8.533
			s-8.533,3.82-8.533,8.533c0,9.426-7.641,17.067-17.067,17.067s-17.067-7.641-17.067-17.067c0-4.713-3.82-8.533-8.533-8.533
			s-8.533,3.82-8.533,8.533c0,9.426-7.641,17.067-17.067,17.067s-17.067-7.641-17.067-17.067V341.331z M34.133,379.25
			c14.032,8.399,32.081,5.418,42.667-7.047c12.086,14.138,33.346,15.802,47.484,3.716c1.333-1.14,2.576-2.382,3.716-3.716
			c12.086,14.138,33.346,15.802,47.484,3.716c1.333-1.14,2.576-2.382,3.716-3.716c12.086,14.138,33.346,15.802,47.484,3.716
			c1.333-1.14,2.576-2.382,3.716-3.716c12.086,14.138,33.346,15.802,47.484,3.716c1.333-1.14,2.576-2.382,3.716-3.716
			c12.086,14.138,33.346,15.802,47.484,3.716c1.333-1.14,2.576-2.382,3.716-3.716c12.086,14.138,33.346,15.802,47.484,3.716
			c1.333-1.14,2.576-2.382,3.716-3.716c12.086,14.138,33.346,15.802,47.484,3.716c1.333-1.14,2.576-2.382,3.716-3.716
			c10.586,12.465,28.634,15.447,42.667,7.047v81.547H34.133V379.25z M494.933,486.398c-0.005,4.711-3.822,8.529-8.533,8.533H25.6
			c-4.711-0.005-8.529-3.822-8.533-8.533v-8.533h477.867V486.398z"/>
	</g>
</g>
<g>
	<g>
		<path d="M68.316,409.548c-2.293-0.013-4.494,0.896-6.108,2.524c-0.773,0.815-1.383,1.772-1.796,2.817
			c-0.906,2.066-0.906,4.417,0,6.483c0.435,1.034,1.042,1.986,1.796,2.817c3.319,3.346,8.722,3.368,12.068,0.05
			c1.628-1.614,2.537-3.816,2.524-6.108C76.827,413.419,73.029,409.576,68.316,409.548z"/>
	</g>
</g>
<g>
	<g>
		<path d="M110.25,414.889c-0.433-1.034-1.039-1.986-1.792-2.817c-3.421-3.158-8.695-3.158-12.117,0
			c-0.755,0.829-1.363,1.782-1.796,2.817c-1.849,4.337,0.167,9.351,4.504,11.2c4.337,1.849,9.351-0.167,11.2-4.504
			C111.162,419.446,111.162,417.028,110.25,414.889z"/>
	</g>
</g>
<g>
	<g>
		<path d="M142.592,412.073c-2.022-1.989-4.896-2.853-7.679-2.308c-0.566,0.083-1.115,0.257-1.625,0.517
			c-0.543,0.185-1.059,0.443-1.533,0.767c-0.447,0.315-0.875,0.657-1.279,1.025c-1.559,1.635-2.443,3.799-2.475,6.059
			c0,4.713,3.82,8.533,8.533,8.533s8.533-3.82,8.533-8.533C145.033,415.872,144.15,413.709,142.592,412.073z"/>
	</g>
</g>
<g>
	<g>
		<path d="M178.517,414.89c-0.433-1.034-1.039-1.986-1.791-2.817c-3.421-3.158-8.695-3.158-12.117,0
			c-0.755,0.829-1.363,1.782-1.796,2.817c-1.819,4.342,0.226,9.337,4.568,11.157s9.337-0.226,11.157-4.568
			c0.444-1.06,0.669-2.198,0.662-3.347C179.229,417.012,178.995,415.902,178.517,414.89z"/>
	</g>
</g>
<g>
	<g>
		<path d="M204.85,409.548c-2.293-0.013-4.494,0.896-6.108,2.524c-1.559,1.635-2.443,3.799-2.475,6.059
			c-0.007,2.267,0.882,4.445,2.475,6.059c3.319,3.346,8.722,3.368,12.068,0.05c1.628-1.614,2.537-3.816,2.524-6.108
			C213.361,413.419,209.563,409.576,204.85,409.548z"/>
	</g>
</g>
<g>
	<g>
		<path d="M246.784,414.89c-0.413-1.044-1.021-2-1.792-2.817c-3.319-3.346-8.722-3.368-12.068-0.05
			c-1.628,1.614-2.537,3.816-2.524,6.108c0.012,1.115,0.243,2.216,0.679,3.242c0.78,2.141,2.467,3.828,4.608,4.608
			c3.176,1.362,6.862,0.653,9.305-1.791c0.751-0.832,1.357-1.784,1.792-2.817C247.695,419.308,247.695,416.955,246.784,414.89z"/>
	</g>
</g>
<g>
	<g>
		<path d="M273.116,409.548c-2.292-0.013-4.494,0.896-6.108,2.524c-0.755,0.829-1.363,1.782-1.796,2.817
			c-0.906,2.066-0.906,4.417,0,6.483c0.435,1.034,1.042,1.986,1.796,2.817c3.365,3.3,8.752,3.3,12.117,0
			c0.751-0.832,1.357-1.784,1.792-2.817c0.438-1.026,0.67-2.127,0.683-3.242C281.627,413.419,277.829,409.576,273.116,409.548z"/>
	</g>
</g>
<g>
	<g>
		<path d="M307.25,409.548c-2.293-0.013-4.494,0.896-6.108,2.524c-0.773,0.815-1.383,1.772-1.796,2.817
			c-0.906,2.066-0.906,4.417,0,6.483c0.435,1.034,1.042,1.986,1.796,2.817c3.319,3.346,8.722,3.368,12.068,0.05
			c1.628-1.614,2.537-3.816,2.524-6.108C315.761,413.419,311.963,409.576,307.25,409.548z"/>
	</g>
</g>
<g>
	<g>
		<path d="M349.183,414.89c-0.433-1.034-1.038-1.987-1.791-2.817c-3.421-3.158-8.695-3.158-12.117,0
			c-0.755,0.829-1.363,1.782-1.796,2.817c-0.906,2.066-0.906,4.417,0,6.483c0.435,1.034,1.042,1.986,1.795,2.817
			c3.29,3.358,8.679,3.413,12.037,0.123C349.818,421.857,350.561,418.116,349.183,414.89z"/>
	</g>
</g>
<g>
	<g>
		<path d="M375.516,409.548c-2.292-0.013-4.494,0.896-6.108,2.524c-0.755,0.829-1.363,1.782-1.796,2.817
			c-1.819,4.343,0.228,9.337,4.57,11.156c4.343,1.819,9.337-0.228,11.156-4.57c0.443-1.059,0.668-2.196,0.661-3.344
			C384.027,413.419,380.229,409.576,375.516,409.548z"/>
	</g>
</g>
<g>
	<g>
		<path d="M417.45,414.89c-0.433-1.034-1.039-1.986-1.791-2.817c-3.319-3.346-8.722-3.368-12.068-0.05
			c-1.628,1.614-2.537,3.816-2.524,6.108c0,4.713,3.82,8.533,8.533,8.533s8.533-3.82,8.533-8.533
			C418.12,417.016,417.888,415.915,417.45,414.89z"/>
	</g>
</g>
<g>
	<g>
		<path d="M443.783,409.548c-2.292-0.013-4.494,0.896-6.108,2.524c-0.755,0.829-1.363,1.782-1.796,2.817
			c-1.819,4.343,0.228,9.337,4.57,11.156c4.343,1.819,9.337-0.228,11.156-4.57c0.443-1.059,0.668-2.196,0.661-3.344
			C452.294,413.419,448.496,409.576,443.783,409.548z"/>
	</g>
</g>
<g>
</g>
<g>
</g>
<g>
</g>
<g>
</g>
<g>
</g>
<g>
</g>
<g>
</g>
<g>
</g>
<g>
</g>
<g>
</g>
<g>
</g>
<g>
</g>
<g>
</g>
<g>
</g>
<g>
</g>
</svg>
