<?xml version="1.0" encoding="iso-8859-1"?>
<!-- Generator: Adobe Illustrator 19.0.0, SVG Export Plug-In . SVG Version: 6.00 Build 0)  -->
<svg version="1.1" id="Capa_1" xmlns="http://www.w3.org/2000/svg" xmlns:xlink="http://www.w3.org/1999/xlink" x="0px" y="0px"
	 viewBox="0 0 512 512" style="enable-background:new 0 0 512 512;" xml:space="preserve">
<path style="fill:#939598;" d="M512,358.208c0,78.55-114.616,142.222-256,142.222S0,436.758,0,358.208s114.616-142.222,256-142.222
	S512,279.659,512,358.208"/>
<path style="fill:#F1F2F2;" d="M512,329.764c0,78.55-114.616,142.222-256,142.222S0,408.314,0,329.764s114.616-142.222,256-142.222
	S512,251.214,512,329.764"/>
<path style="fill:#FFFFFF;" d="M466.486,324.232c0,59.762-94.237,108.246-210.489,108.246S45.508,383.995,45.508,324.232
	c0-59.776,94.237-108.246,210.489-108.246S466.486,264.456,466.486,324.232"/>
<path style="fill:#E1E8ED;" d="M113.778,400.875c0-43.292,5.93-102.514,0.597-197.333c8.533-19.57,87.41-35.157,94.222-53.93
	c18.304-50.432-17.194-84.139,18.958-118.514c29.156-27.719,71.111-28.444,85.333,14.222c28.444-28.444,85.333-14.222,85.333,28.444
	c56.889-14.222,85.333,42.667,42.667,85.333c0,14.222-14.222,128-14.222,156.444c0,28.444-2.958,25.486-74.07,39.708
	S113.778,400.875,113.778,400.875"/>
<path style="fill:#FFAC33;" d="M113.778,386.653V215.986c0,0,298.667-99.556,298.667-34.958v148.736L113.778,386.653z"/>
<path style="fill:#FFD983;" d="M113.778,372.431V230.208c0,0,176-59.847,284.444-56.889v142.222L113.778,372.431z"/>
<path style="fill:#FFAC33;" d="M113.778,301.319v-14.222l298.667-56.889v14.222L113.778,301.319z"/>
<path style="fill:#E1E8ED;" d="M113.778,201.764l128-128c28.444,0,113.778,14.222,156.444,71.111
	C257.821,172.964,257.821,172.964,113.778,201.764"/>
<path style="fill:#FFFFFF;" d="M426.667,144.875c14.222-14.222,14.222-71.111-42.667-56.889c0-14.222-28.444-56.889-71.111-28.444
	c0-14.222-71.111-28.444-85.333,0C369.778,102.208,426.667,144.875,426.667,144.875"/>
<path style="fill:#DD2E44;" d="M255.41,151.393c-26.07-2.958-62.819-15.403-55.708-49.778c7.111-34.375,35.185-69.419,53.333-78.819
	c16.015-8.292,33.081-2.233,45.639,46.222c8.292,32,39.111,72.889-23.708,81.778C268.451,150.796,255.41,151.393,255.41,151.393"/>
<g>
	<path style="fill:#F4ABBA;" d="M261.34,74.354c-2.162,0-4.295-0.981-5.689-2.844l-7.111-9.486
		c-2.361-3.129-1.721-7.594,1.408-9.941c3.144-2.375,7.594-1.735,9.956,1.422l7.111,9.472c2.361,3.144,1.721,7.594-1.408,9.956
		C264.326,73.885,262.82,74.354,261.34,74.354"/>
	<path style="fill:#F4ABBA;" d="M226.972,124.132c-0.597,0-1.209-0.071-1.806-0.228c-3.797-0.996-6.073-4.878-5.077-8.676
		l3.556-13.625c0.981-3.812,4.892-6.073,8.676-5.092c3.797,0.996,6.073,4.878,5.077,8.676l-3.556,13.625
		C233.017,122.012,230.13,124.132,226.972,124.132"/>
	<path style="fill:#F4ABBA;" d="M289.18,125.319c-1.265,0-2.56-0.327-3.712-1.038l-10.667-6.514
		c-3.342-2.048-4.394-6.428-2.361-9.785c2.077-3.357,6.443-4.394,9.785-2.361l10.667,6.514c3.342,2.048,4.394,6.428,2.361,9.785
		C293.902,124.11,291.57,125.319,289.18,125.319"/>
</g>
<g>
</g>
<g>
</g>
<g>
</g>
<g>
</g>
<g>
</g>
<g>
</g>
<g>
</g>
<g>
</g>
<g>
</g>
<g>
</g>
<g>
</g>
<g>
</g>
<g>
</g>
<g>
</g>
<g>
</g>
</svg>
