<?xml version="1.0" encoding="iso-8859-1"?>
<!-- Generator: Adobe Illustrator 19.0.0, SVG Export Plug-In . SVG Version: 6.00 Build 0)  -->
<svg version="1.1" id="Capa_1" xmlns="http://www.w3.org/2000/svg" xmlns:xlink="http://www.w3.org/1999/xlink" x="0px" y="0px"
	 viewBox="0 0 512 512" style="enable-background:new 0 0 512 512;" xml:space="preserve">
<path style="fill:#D75E72;" d="M221.17,123.23l-44.196-17.955c-5.74-2.332-12.282-1.484-17.238,2.233l-97.943,73.457l7.369,26.35
	l377.364,16.975l3.68-8.015L269.173,142.73"/>
<path style="fill:#E6E7E8;" d="M61.793,300.038C23.31,315.484,0,335.556,0,357.517c0,48.753,114.615,88.276,256,88.276
	s256-39.523,256-88.276c0-21.961-23.31-42.033-61.793-57.48H61.793V300.038z"/>
<path style="fill:#FDD7AD;" d="M61.793,180.966v159.681c0,9.439,7.424,17.208,16.853,17.637l353.103,16.05
	c4.817,0.219,9.513-1.542,12.999-4.873s5.458-7.943,5.458-12.765v-140.42L61.793,180.966z"/>
<polygon style="fill:#FAC176;" points="61.793,242.759 450.207,269.241 450.207,322.207 61.793,295.724 "/>
<circle style="fill:#802F34;" cx="247.17" cy="128" r="26.483"/>
<path style="fill:#527F72;" d="M247.172,110.345c-2.342,0.001-4.588-0.928-6.244-2.584s-2.585-3.902-2.584-6.244
	c0-22.112,16.5-35.31,44.138-35.31c4.875,0,8.828,3.952,8.828,8.828c0,4.875-3.952,8.828-8.828,8.828
	C256,83.862,256,97.147,256,101.517c0.001,2.342-0.928,4.588-2.584,6.244C251.76,109.417,249.514,110.346,247.172,110.345
	L247.172,110.345z"/>
<g>
</g>
<g>
</g>
<g>
</g>
<g>
</g>
<g>
</g>
<g>
</g>
<g>
</g>
<g>
</g>
<g>
</g>
<g>
</g>
<g>
</g>
<g>
</g>
<g>
</g>
<g>
</g>
<g>
</g>
</svg>
