<?xml version="1.0" encoding="iso-8859-1"?>
<!-- Generator: Adobe Illustrator 19.0.0, SVG Export Plug-In . SVG Version: 6.00 Build 0)  -->
<svg version="1.1" id="Layer_1" xmlns="http://www.w3.org/2000/svg" xmlns:xlink="http://www.w3.org/1999/xlink" x="0px" y="0px"
	 viewBox="0 0 512.002 512.002" style="enable-background:new 0 0 512.002 512.002;" xml:space="preserve">
<path style="fill:#999999;" d="M382.217,475.71c-1.802,1.814-4.172,2.715-6.542,2.715c-2.37,0-4.74-0.901-6.542-2.715
	l-132.88-132.88l-13.095-13.095l-69.698-69.698c-3.616-3.616-3.616-9.467,0-13.083c3.616-3.616,9.467-3.616,13.083,0l69.698,69.698
	l145.975,145.975C385.833,466.243,385.833,472.094,382.217,475.71z"/>
<rect x="226.982" y="320.484" transform="matrix(-0.7071 0.7071 -0.7071 -0.7071 636.4416 395.8709)" style="fill:#808080;" width="18.502" height="18.526"/>
<path style="fill:#B3B3B3;" d="M112.456,478.426c-2.369,0-4.738-0.903-6.545-2.712c-3.615-3.615-3.615-9.477,0-13.09L321.585,246.95
	c3.615-3.615,9.477-3.615,13.09,0c3.615,3.615,3.615,9.477,0,13.09L119.003,475.714
	C117.194,477.522,114.826,478.426,112.456,478.426z"/>
<path style="fill:#E09B2D;" d="M490.123,202.023v83.571c0,8.8-7.146,15.947-15.947,15.947c-4.406,0-8.393-1.79-11.281-4.678
	c-2.888-2.876-4.678-6.875-4.678-11.269v-34.041C475.398,239.347,486.284,221.376,490.123,202.023z"/>
<path style="fill:#9AD14B;" d="M484.919,73.122c0,14.305-5.455,28.622-16.379,39.545c-21.846-21.846-21.846-57.245,0-79.091
	C479.464,44.499,484.919,58.817,484.919,73.122z"/>
<path style="fill:#90BC42;" d="M468.54,33.576v79.091C446.694,90.821,446.694,55.423,468.54,33.576z"/>
<path style="fill:#B27214;" d="M458.84,128.34c-1.422,0-2.842-0.542-3.927-1.627c-2.169-2.169-2.169-5.686,0-7.855l3.82-3.82
	c12.777-12.776,31.004-18.351,48.769-14.912c3.012,0.583,4.98,3.497,4.398,6.508c-0.584,3.01-3.497,4.984-6.508,4.398
	c-14.135-2.736-28.64,1.697-38.802,11.861l-3.82,3.82C461.683,127.797,460.261,128.34,458.84,128.34z"/>
<path style="fill:#F7B239;" d="M472.305,136.254c20.143,20.143,26.907,47.383,21.933,72.34v0.012
	c-3.839,19.353-14.725,37.324-31.905,49.531c-3.9,2.789-8.121,5.258-12.663,7.393l-45.704,21.439
	c-3.789,1.777-7.702,3.098-11.664,3.95c-3.851,0.839-7.751,1.259-11.639,1.259c-1.592,0-3.172-0.074-4.752-0.21
	c-4.925-0.42-9.763-1.518-14.416-3.234c-10.837-4.024-19.538-12.306-24.512-22.723c-1.173-2.469-2.567-4.801-4.147-6.986
	c-1.419-1.975-2.987-3.814-4.702-5.529c-3.616-3.616-7.838-6.616-12.515-8.85c-3.468-1.654-6.69-3.715-9.602-6.147
	c-5.863-4.851-10.442-11.133-13.12-18.366c-5.023-13.54-4.641-28.832,1.765-42.471l21.439-45.717
	c23.599-50.296,89.977-61.922,129.276-22.636L472.305,136.254z"/>
<path style="fill:#E09B2D;" d="M324.524,232.064c-1.027-6.1-2.446-12.119-3.901-18.13c-2.88-11.891-1.786-24.678,3.658-36.271
	l21.439-45.717c11.665-24.86,33.783-40.265,57.914-44.753c-34.218-6.407-71.167,9.867-87.536,44.753l-21.439,45.717
	c-6.406,13.639-6.788,28.931-1.765,42.471c2.678,7.233,7.257,13.515,13.12,18.366c2.913,2.431,6.134,4.493,9.602,6.147
	c4.678,2.234,8.899,5.233,12.515,8.85L324.524,232.064z"/>
<path style="fill:#F95428;" d="M160.002,253.495c-16.132,16.132-36.682,25.154-57.751,27.067
	c-26.746,2.431-54.332-6.591-74.796-27.067c-2.851-2.851-5.48-5.838-7.887-8.948c-0.012-0.012-0.012-0.012-0.025-0.025
	c-28.474-36.768-25.833-89.841,7.912-123.586c36.596-36.596,95.938-36.596,132.546,0C196.61,157.545,196.61,216.887,160.002,253.495
	z"/>
<path style="fill:#F2F2F2;" d="M73.975,196.189c0,14.922,12.145,27.067,27.079,27.067c19.933,0,36.151-16.218,36.151-36.151
	c0-26.191-21.316-47.506-47.506-47.506c-34.028,0-61.7,27.684-61.7,61.7c0,42.063,32.856,76.585,74.253,79.264
	c-26.746,2.431-54.332-6.591-74.796-27.067c-2.851-2.851-5.48-5.838-7.887-8.948c-0.012-0.012-0.012-0.012-0.025-0.025
	c-6.443-13.046-10.059-27.721-10.059-43.224c0-44.223,35.978-80.214,80.214-80.214c36.398,0,66.02,29.622,66.02,66.02
	c0,30.14-24.525,54.665-54.665,54.665c-25.142,0-45.593-20.439-45.593-45.581c0-21.13,17.193-38.324,38.324-38.324
	c5.11,0,9.257,4.147,9.257,9.257s-4.147,9.257-9.257,9.257C82.861,176.379,73.975,185.266,73.975,196.189z"/>
<g>
</g>
<g>
</g>
<g>
</g>
<g>
</g>
<g>
</g>
<g>
</g>
<g>
</g>
<g>
</g>
<g>
</g>
<g>
</g>
<g>
</g>
<g>
</g>
<g>
</g>
<g>
</g>
<g>
</g>
</svg>
