<?xml version="1.0" encoding="iso-8859-1"?>
<!-- Generator: Adobe Illustrator 19.0.0, SVG Export Plug-In . SVG Version: 6.00 Build 0)  -->
<svg version="1.1" id="Capa_1" xmlns="http://www.w3.org/2000/svg" xmlns:xlink="http://www.w3.org/1999/xlink" x="0px" y="0px"
	 viewBox="0 0 512.001 512.001" style="enable-background:new 0 0 512.001 512.001;" xml:space="preserve">
<path style="fill:#0079D0;" d="M490.278,295.934L490.278,295.934c-7.894,9.628-9.083,23.108-2.998,33.971l0,0
	c14.992,26.761-14.818,56.369-41.404,41.068c-36.31-20.899-68.715-57.495-68.715-114.971s32.405-94.072,68.715-114.971
	c26.586-15.301,56.396,14.307,41.404,41.068l0,0c-6.085,10.862-4.896,24.343,2.998,33.971l0,0
	C509.314,239.289,509.314,272.717,490.278,295.934z"/>
<path style="opacity:0.15;enable-background:new    ;" d="M490.278,295.934L490.278,295.934c-7.894,9.628-9.083,23.108-2.998,33.971
	l0,0c14.992,26.761-14.818,56.369-41.404,41.068c-36.31-20.899-68.715-57.495-68.715-114.971s32.405-94.072,68.715-114.971
	c26.586-15.301,56.396,14.307,41.404,41.068l0,0c-6.085,10.862-4.896,24.343,2.998,33.971l0,0
	C509.314,239.289,509.314,272.717,490.278,295.934z"/>
<path style="opacity:0.15;enable-background:new    ;" d="M490.278,295.934L490.278,295.934c19.036-23.218,19.036-56.645,0-79.864
	l0,0c-7.894-9.628-9.083-23.108-2.998-33.971l0,0c12.939-23.095-7.493-48.307-30.421-44.946
	c19.163,2.807,33.486,24.69,22.137,44.946l0,0c-6.085,10.862-4.896,24.343,2.998,33.971l0,0c19.036,23.217,19.036,56.645,0,79.863
	l0,0c-7.894,9.627-9.083,23.108-2.998,33.971c11.349,20.256-2.975,42.138-22.137,44.946c22.929,3.361,43.361-21.85,30.422-44.946
	C481.194,319.043,482.384,305.563,490.278,295.934z"/>
<path style="fill:#0079D0;" d="M21.76,295.934L21.76,295.934c7.894,9.628,9.084,23.108,2.998,33.971l0,0
	c-14.992,26.761,14.819,56.369,41.404,41.068c36.31-20.899,68.715-57.495,68.715-114.971s-32.405-94.072-68.715-114.971
	c-26.585-15.301-56.396,14.307-41.404,41.068l0,0c6.085,10.862,4.896,24.343-2.998,33.971l0,0
	C2.724,239.289,2.724,272.717,21.76,295.934z"/>
<path style="opacity:0.15;enable-background:new    ;" d="M21.76,295.934L21.76,295.934c7.894,9.628,9.084,23.108,2.998,33.971l0,0
	c-14.992,26.761,14.819,56.369,41.404,41.068c36.31-20.899,68.715-57.495,68.715-114.971s-32.405-94.072-68.715-114.971
	c-26.585-15.301-56.396,14.307-41.404,41.068l0,0c6.085,10.862,4.896,24.343-2.998,33.971l0,0
	C2.724,239.289,2.724,272.717,21.76,295.934z"/>
<path style="opacity:0.15;enable-background:new    ;" d="M123.295,201.167c-7.334,16.795-11.412,35.338-11.412,54.836
	s4.078,38.041,11.412,54.836c7.25-15.668,11.583-33.855,11.583-54.836C134.878,235.022,130.546,216.835,123.295,201.167z"/>
<circle style="fill:#0079D0;" cx="256.019" cy="256" r="137.16"/>
<path style="fill:#FE8CB7;" d="M256.019,118.842c-75.751,0-137.16,61.409-137.16,137.16c0,0.696,0.016,1.387,0.026,2.081
	l139.214-139.215C257.406,118.859,256.715,118.842,256.019,118.842z M324.299,137.02L137.036,324.283
	c11.189,19.456,27.018,35.901,45.969,47.842l189.137-189.137C360.199,164.037,343.755,148.208,324.299,137.02z M392.853,246.626
	L246.642,392.837c3.099,0.209,6.225,0.325,9.377,0.325c75.751,0,137.16-61.409,137.16-137.16
	C393.179,252.85,393.063,249.725,392.853,246.626z"/>
<path style="opacity:0.15;enable-background:new    ;" d="M256.019,118.842c-3.646,0-7.256,0.145-10.83,0.424
	c70.688,5.522,126.33,64.629,126.33,136.736s-55.642,131.214-126.33,136.736c3.574,0.279,7.185,0.424,10.83,0.424
	c75.751,0,137.16-61.409,137.16-137.16S331.77,118.842,256.019,118.842z"/>
<path d="M496.078,300.69c21.231-25.894,21.231-63.481,0-89.374c-5.979-7.293-6.864-17.322-2.255-25.549
	c8.543-15.247,6.021-33.05-6.426-45.354c-12.403-12.262-30.171-14.568-45.264-5.883c-25.117,14.457-44.467,33.83-56.759,56.643
	c-6.213-12.379-14.234-23.912-23.932-34.23c-2.839-3.019-7.584-3.164-10.604-0.328c-3.018,2.837-3.165,7.584-0.328,10.604
	c4.388,4.668,8.388,9.614,11.996,14.794L182.074,362.446c-14.157-9.864-26.263-22.473-35.538-37.054l178.896-178.896
	c2.222,1.414,4.421,2.877,6.569,4.434c3.356,2.432,8.044,1.681,10.476-1.673c2.431-3.355,1.682-8.045-1.673-10.476
	c-3.989-2.889-8.106-5.536-12.317-7.982c-0.259-0.175-0.527-0.33-0.802-0.469c-21.016-12.033-44.594-18.516-69.113-18.938
	c-0.223-0.014-0.447-0.019-0.671-0.013c-0.628-0.008-1.253-0.036-1.882-0.036c-56.495,0-105.521,32.558-129.324,79.891
	c-12.29-22.838-31.653-42.232-56.791-56.702c-15.091-8.686-32.859-6.379-45.264,5.883c-12.447,12.304-14.969,30.105-6.427,45.354
	c4.61,8.227,3.726,18.256-2.254,25.548c-14.069,17.16-19.256,40.266-13.873,61.807c0.852,3.408,3.911,5.685,7.272,5.685
	c0.602,0,1.214-0.073,1.824-0.226c4.02-1.004,6.463-5.077,5.459-9.096c-4.238-16.959-0.156-35.15,10.92-48.657
	c9.921-12.102,11.39-28.741,3.741-42.393c-6.257-11.169-1.817-21.714,3.886-27.351c5.941-5.873,16.216-9.889,27.233-3.551
	c18.852,10.852,43.713,30.416,56.465,62.387c-2.68,7.954-4.683,16.215-5.946,24.715l-42.92-24.85
	c-3.587-2.076-8.174-0.852-10.25,2.732c-2.076,3.586-0.853,8.174,2.732,10.249l44.449,25.734H55.635
	c-4.144,0-7.501,3.357-7.501,7.501s3.357,7.501,7.501,7.501h51.316l-44.449,25.734c-3.586,2.075-4.81,6.664-2.732,10.249
	c1.39,2.401,3.909,3.744,6.498,3.744c1.275,0,2.568-0.325,3.752-1.011l42.92-24.85c1.264,8.499,3.266,16.761,5.946,24.715
	c-12.752,31.971-37.613,51.536-56.465,62.387c-11.017,6.34-21.29,2.323-27.233-3.551c-5.703-5.637-10.142-16.182-3.886-27.351
	c7.649-13.651,6.181-30.291-3.744-42.397c-0.861-1.05-1.702-2.156-2.5-3.288c-2.383-3.388-7.062-4.202-10.451-1.816
	c-3.388,2.384-4.202,7.064-1.816,10.451c1.009,1.435,2.076,2.838,3.169,4.17c5.98,7.293,6.864,17.322,2.254,25.549
	c-8.542,15.248-6.02,33.05,6.427,45.354c7.409,7.324,16.729,11.097,26.253,11.097c6.42,0,12.934-1.716,19.011-5.214
	c25.139-14.47,44.501-33.864,56.791-56.702c1.087,2.161,2.225,4.293,3.415,6.39c0.236,0.568,0.551,1.11,0.933,1.618
	c11.628,19.89,27.86,36.773,47.233,49.167c0.473,0.384,0.984,0.695,1.516,0.947c22.148,13.788,48.271,21.767,76.227,21.767
	c56.495,0,105.521-32.558,129.324-79.891c12.29,22.838,31.652,42.233,56.79,56.702c6.078,3.499,12.59,5.214,19.011,5.214
	c9.522,0,18.845-3.773,26.253-11.097c12.446-12.304,14.969-30.106,6.426-45.354C489.214,318.011,490.1,307.983,496.078,300.69z
	 M238.882,127.478L127.494,238.866C135.162,181.052,181.068,135.146,238.882,127.478z M126.47,261.109l134.666-134.666
	c17.739,0.683,34.874,4.942,50.649,12.481L138.968,311.742C131.583,296.297,127.173,279.171,126.47,261.109z M264.725,385.362
	l29.471-29.471c2.929-2.93,2.929-7.679,0-10.609c-2.93-2.927-7.679-2.929-10.609,0l-39.799,39.798
	c-17.407-1.636-33.821-6.727-48.552-14.579l175.321-175.32c7.98,15.001,12.943,31.472,14.548,48.583l-84.071,84.072
	c-2.929,2.93-2.929,7.679,0,10.609c1.465,1.464,3.385,2.196,5.305,2.196c1.919,0,3.84-0.732,5.305-2.196l73.736-73.737
	C381.075,329.28,329.296,381.06,264.725,385.362z M484.477,291.178c-9.921,12.101-11.39,28.74-3.742,42.393
	c6.258,11.169,1.818,21.714-3.885,27.351c-5.941,5.874-16.215,9.891-27.233,3.551c-18.852-10.851-43.712-30.415-56.465-62.387
	c2.68-7.954,4.683-16.215,5.946-24.715l42.92,24.85c1.184,0.686,2.475,1.011,3.752,1.011c2.589,0,5.108-1.342,6.498-3.744
	c2.076-3.586,0.852-8.174-2.732-10.249l-44.449-25.734h51.316c4.144,0,7.501-3.357,7.501-7.501s-3.357-7.501-7.501-7.501h-51.316
	l44.449-25.734c3.586-2.075,4.81-6.664,2.732-10.249c-2.075-3.585-6.666-4.811-10.249-2.732l-42.917,24.848
	c-1.251-8.444-3.24-16.721-5.936-24.748c12.757-31.952,37.607-51.506,56.451-62.352c11.021-6.339,21.294-2.322,27.233,3.551
	c5.703,5.637,10.142,16.182,3.885,27.351c-7.648,13.652-6.18,30.292,3.742,42.393C501.189,241.209,501.189,270.795,484.477,291.178z
	"/>
<g>
</g>
<g>
</g>
<g>
</g>
<g>
</g>
<g>
</g>
<g>
</g>
<g>
</g>
<g>
</g>
<g>
</g>
<g>
</g>
<g>
</g>
<g>
</g>
<g>
</g>
<g>
</g>
<g>
</g>
</svg>
