<?xml version="1.0" encoding="iso-8859-1"?>
<!-- Generator: Adobe Illustrator 19.0.0, SVG Export Plug-In . SVG Version: 6.00 Build 0)  -->
<svg version="1.1" id="Layer_1" xmlns="http://www.w3.org/2000/svg" xmlns:xlink="http://www.w3.org/1999/xlink" x="0px" y="0px"
	 viewBox="0 0 511.995 511.995" style="enable-background:new 0 0 511.995 511.995;" xml:space="preserve">
<path style="fill:#BCAAA4;" d="M62.861,130.247c0,122.82,81.374,226.599,193.141,260.46
	c111.767-33.861,193.141-137.64,193.141-260.46C378.067,130.247,129.784,130.247,62.861,130.247z"/>
<path style="fill:#D7CCC8;" d="M419.584,307.911c-9.938-3.046-1.255-20.736-0.553-31.096c0.465-6.707-0.992-13.415-4.644-19.068
	l-0.158-0.246c-11.185-17.356-8.279-39.743,5.943-54.712c17.953-18.893,28.962-44.431,28.962-72.551H62.852
	c0,28.12,11.018,53.667,28.971,72.56c14.222,14.96,17.119,37.346,5.943,54.694l-0.158,0.246c-3.643,5.654-5.101,12.361-4.644,19.068
	c0.711,10.359,9.394,28.049-0.544,31.096c-6.681,2.046-5.592-17.242-12.405-16.584c-4.293,0.413-4.109,6.839-4.916,11.799
	c-0.334,2.054-0.386,4.153-0.018,6.198c5.311,29.911,16.733,57.67,32.852,82.076c1.826,2.765,5.101,4.161,8.384,3.775
	c14.292-1.668,28.717-1.949,43.053-0.816c9.938,0.79,16.663,10.57,14.091,20.21l-6.725,25.135
	c-5.847,22.001,14.609,32.983,30.709,49.084c30.393,30.393,85.641,31.5,117.105,0.035c16.101-16.101,36.574-27.075,30.727-49.084
	l-6.734-25.179c-2.572-9.631,4.144-19.419,14.091-20.201c14.336-1.133,28.752-0.852,43.044,0.816
	c3.292,0.386,6.558-1.01,8.384-3.775c16.127-24.406,27.54-52.174,32.86-82.094c0.36-2.037,0.307-4.126-0.026-6.163
	c-0.808-4.969-0.615-11.404-4.916-11.817C425.176,290.678,426.265,309.965,419.584,307.911z"/>
<path style="fill:#616161;" d="M249.611,431.767c-8.296-8.595-17.33-16.478-26.978-23.572c-5.733-4.214-8.691-11.255-7.181-18.199
	c4.583-21.079,13.853-40.393,26.768-56.757c6.988-8.858,20.578-8.858,27.575,0c12.905,16.364,22.185,35.678,26.768,56.757
	c1.51,6.944-1.449,13.994-7.181,18.199c-9.648,7.094-18.673,14.977-26.978,23.572C258.864,435.428,253.149,435.428,249.611,431.767z
	"/>
<path style="fill:#424242;" d="M222.826,277.114c-9.947-7.164-20.104-14.064-30.63-20.429c-1.765-1.071-3.88-1.51-5.926-1.238
	c-23.23,3.064-45.511,9.165-66.423,17.874c-8.735,3.643-13.002,13.458-9.85,22.387c3.169,8.981,6.584,17.839,10.21,26.592
	c3.88,9.332,12.581,15.671,22.65,16.478c9.192,0.737,18.445,1.264,27.742,1.607c11.553,0.421,23.045-2.678,32.439-9.411
	c6.874-4.925,13.652-9.991,20.35-15.153c5.25-4.047,7.822-10.781,6.514-17.277c-1.097-5.443-2.283-10.86-3.573-16.233
	C225.819,280.222,224.573,278.369,222.826,277.114z M285.684,282.311c-1.291,5.373-2.484,10.781-3.573,16.233
	c-1.308,6.497,1.264,13.23,6.514,17.277c6.699,5.162,13.476,10.219,20.35,15.153c9.394,6.734,20.886,9.833,32.439,9.411
	c9.297-0.342,18.55-0.869,27.742-1.607c10.07-0.808,18.779-7.137,22.65-16.478c3.635-8.753,7.05-17.611,10.21-26.592
	c3.152-8.928-1.115-18.743-9.85-22.387c-20.912-8.709-43.193-14.81-66.423-17.874c-2.046-0.272-4.161,0.176-5.926,1.238
	c-10.535,6.365-20.684,13.257-30.63,20.429C287.432,278.369,286.185,280.222,285.684,282.311z"/>
<ellipse style="fill:#EFEBE9;" cx="256.002" cy="130.247" rx="193.141" ry="43.896"/>
<path style="fill:#3E2723;" d="M256.002,156.585c-98.133,0-157.182-15.925-172.826-26.337
	c15.644-10.403,74.693-26.337,172.826-26.337s157.182,15.934,172.826,26.337C413.184,140.66,354.135,156.585,256.002,156.585z"/>
<circle style="fill:#FFD600;" cx="247.223" cy="51.955" r="51.955"/>
<circle style="fill:#00C853;" cx="305.025" cy="82.708" r="51.955"/>
<path style="fill:#00B0FF;" d="M138.95,72.437c-28.699,0-51.955,23.265-51.955,51.955c0,2.862,0.29,5.654,0.737,8.393
	c14.301,7.111,46.17,15.75,94.446,20.42c5.505-8.244,8.726-18.146,8.726-28.804C190.905,95.702,167.64,72.437,138.95,72.437z"/>
<path style="fill:#FF1744;" d="M421.357,110.494c0-28.69-23.265-51.955-51.955-51.955c-28.699,0-51.955,23.265-51.955,51.955
	c0,17.172,8.367,32.351,21.21,41.815c34.414-3.828,59.672-9.666,75.343-15.258C418.645,129.273,421.357,120.213,421.357,110.494z"/>
<path style="fill:#FF3D00;" d="M256.002,110.494c0-28.69-23.265-51.955-51.955-51.955s-51.955,23.265-51.955,51.955
	c0,17.172,8.367,32.342,21.202,41.806c16.452,1.826,35.038,3.169,55.616,3.819C245.055,147.305,256.002,130.186,256.002,110.494z"/>
<path style="fill:#4DD0E1;" d="M328.263,153.354c3.468-6.971,5.469-14.793,5.469-23.107c0-28.69-23.265-51.955-51.955-51.955
	c-28.699,0-51.955,23.265-51.955,51.955c0,9.534,2.616,18.436,7.094,26.118c6.198,0.132,12.545,0.219,19.086,0.219
	C283.147,156.585,307.185,155.338,328.263,153.354z"/>
<g>
</g>
<g>
</g>
<g>
</g>
<g>
</g>
<g>
</g>
<g>
</g>
<g>
</g>
<g>
</g>
<g>
</g>
<g>
</g>
<g>
</g>
<g>
</g>
<g>
</g>
<g>
</g>
<g>
</g>
</svg>
