<?xml version="1.0" encoding="iso-8859-1"?>
<!-- Generator: Adobe Illustrator 19.0.0, SVG Export Plug-In . SVG Version: 6.00 Build 0)  -->
<svg version="1.1" id="Capa_1" xmlns="http://www.w3.org/2000/svg" xmlns:xlink="http://www.w3.org/1999/xlink" x="0px" y="0px"
	 viewBox="0 0 511 511" style="enable-background:new 0 0 511 511;" xml:space="preserve">
<g>
	<path d="M383,111.5c0-11.2-7.877-20.588-18.381-22.932c-4.981-23.765-17.684-45.407-36.211-61.431C308.175,9.638,282.283,0,255.5,0
		s-52.675,9.638-72.908,27.137c-18.527,16.024-31.231,37.666-36.211,61.431C135.877,90.912,128,100.3,128,111.5
		s7.877,20.588,18.381,22.932c4.981,23.765,17.684,45.407,36.211,61.431c14.223,12.302,31.248,20.698,49.408,24.613V487.5
		c0,12.958,10.542,23.5,23.5,23.5s23.5-10.542,23.5-23.5V220.476c18.16-3.915,35.185-12.311,49.408-24.613
		c18.528-16.024,31.231-37.666,36.211-61.431C375.123,132.088,383,122.7,383,111.5z M192.405,38.482
		C209.913,23.339,232.32,15,255.5,15c23.18,0,45.587,8.339,63.095,23.482c15.088,13.05,25.72,30.394,30.515,49.518H161.889
		C166.685,68.876,177.317,51.532,192.405,38.482z M264,487.5c0,4.687-3.813,8.5-8.5,8.5s-8.5-3.813-8.5-8.5V222.652
		c2.821,0.216,5.654,0.348,8.5,0.348s5.679-0.132,8.5-0.348V487.5z M318.595,184.518C301.087,199.661,278.68,208,255.5,208
		c-23.18,0-45.587-8.339-63.095-23.482c-15.088-13.05-25.72-30.394-30.516-49.518h187.221
		C344.315,154.124,333.683,171.468,318.595,184.518z M359.5,120h-208c-4.687,0-8.5-3.813-8.5-8.5s3.813-8.5,8.5-8.5h206.735
		c0.011,0,0.021,0.001,0.032,0.001c0.006,0,0.013-0.001,0.019-0.001h1.213c4.687,0,8.5,3.813,8.5,8.5S364.187,120,359.5,120z"/>
	<path d="M262.676,47.394c15.747,1.74,30.27,9.233,40.895,21.099c1.481,1.654,3.531,2.497,5.59,2.497c1.781,0,3.569-0.631,5-1.913
		c3.086-2.763,3.348-7.504,0.584-10.59c-13.091-14.621-30.998-23.855-50.422-26.002c-4.111-0.453-7.823,2.514-8.278,6.631
		C255.59,43.232,258.559,46.939,262.676,47.394z"/>
	<path d="M248.324,175.606c-15.747-1.741-30.27-9.233-40.894-21.099c-2.762-3.085-7.504-3.347-10.59-0.584
		c-3.086,2.763-3.348,7.504-0.584,10.59c13.091,14.621,30.998,23.855,50.421,26.002c0.28,0.031,0.558,0.046,0.833,0.046
		c3.773,0,7.021-2.839,7.445-6.677C255.41,179.768,252.441,176.061,248.324,175.606z"/>
</g>
<g>
</g>
<g>
</g>
<g>
</g>
<g>
</g>
<g>
</g>
<g>
</g>
<g>
</g>
<g>
</g>
<g>
</g>
<g>
</g>
<g>
</g>
<g>
</g>
<g>
</g>
<g>
</g>
<g>
</g>
</svg>
