<?xml version="1.0" encoding="iso-8859-1"?>
<!-- Generator: Adobe Illustrator 19.0.0, SVG Export Plug-In . SVG Version: 6.00 Build 0)  -->
<svg version="1.1" id="Capa_1" xmlns="http://www.w3.org/2000/svg" xmlns:xlink="http://www.w3.org/1999/xlink" x="0px" y="0px"
	 viewBox="0 0 512 512" style="enable-background:new 0 0 512 512;" xml:space="preserve">
<path style="fill:#D8E0E0;" d="M165.943,266.065c0.556-2.14,1.973-3.955,3.915-5.014l28.102-15.313
	c1.941-1.059,4.234-1.266,6.335-0.572c2.1,0.693,3.819,2.224,4.751,4.229l104.623,225.449c1.641,3.537,0.423,7.862-2.82,10.025
	c-3.691,2.462-8.835,1.364-11.201-2.384L166.922,272.349C165.741,270.48,165.387,268.205,165.943,266.065z"/>
<path style="fill:#EDA6CD;" d="M43.8,138.398c40.678-22.163,91.801-7.103,113.964,33.573c10.737,19.704,13.157,42.41,6.817,63.935
	c-6.341,21.524-20.685,39.292-40.389,50.029c-12.731,6.937-26.485,10.228-40.055,10.227c-29.786,0-58.682-15.855-73.909-43.8
	C-11.936,211.687,3.123,160.562,43.8,138.398z"/>
<path style="fill:#7BDFE8;" d="M163.235,73.319c19.705-10.736,42.412-13.158,63.936-6.817c21.524,6.341,39.292,20.685,50.028,40.389
	c22.164,40.675,7.104,91.801-33.573,113.965c-12.507,6.815-26.224,10.28-40.08,10.279c-7.973,0-15.993-1.147-23.855-3.462
	c-21.525-6.342-39.293-20.685-50.029-40.389C107.499,146.608,122.558,95.483,163.235,73.319z"/>
<g>
	<path style="fill:#EDA6CD;" d="M203.41,197.212c32.93-17.943,74.314-5.75,92.257,27.178c8.691,15.951,10.651,34.332,5.518,51.757
		c-5.133,17.425-16.745,31.807-32.695,40.499c-10.125,5.518-21.229,8.322-32.445,8.322c-6.455,0-12.946-0.929-19.311-2.803
		c-17.425-5.133-31.808-16.745-40.5-32.696C158.289,256.541,170.481,215.154,203.41,197.212z"/>
	<path style="fill:#EDA6CD;" d="M126.128,239.323c15.952-8.692,34.333-10.65,51.758-5.519c17.425,5.133,31.807,16.745,40.499,32.696
		c8.692,15.951,10.651,34.332,5.519,51.757c-5.133,17.425-16.745,31.808-32.696,40.5c-10.306,5.616-21.44,8.279-32.425,8.279
		c-24.113,0-47.505-12.834-59.831-35.457C81.008,298.651,93.2,257.265,126.128,239.323z"/>
</g>
<path style="fill:#D289B1;" d="M301.201,259.311c-5.133,17.425-16.745,31.807-32.696,40.499
	c-10.125,5.518-21.229,8.322-32.445,8.322c-4.646,0-9.313-0.49-13.938-1.459c-5.779,15.054-16.582,27.447-30.898,35.248
	c-10.306,5.616-21.44,8.279-32.425,8.279c-24.113,0-47.505-12.834-59.831-35.457c-4.197-7.704-6.726-15.872-7.745-24.094
	c-1.717,13.655,0.654,27.949,7.727,40.93c12.327,22.622,35.719,35.457,59.831,35.457c10.985,0,22.119-2.663,32.425-8.279
	c14.316-7.801,25.12-20.194,30.898-35.248c4.624,0.969,9.29,1.459,13.938,1.459c11.217,0,22.32-2.804,32.445-8.322
	c15.951-8.692,27.563-23.074,32.696-40.499c2.685-9.115,3.41-18.488,2.266-27.641C302.991,252.128,302.254,255.74,301.201,259.311z"
	/>
<g>
	<path style="fill:#EDA6CD;" d="M130.315,155.038c34.866-18.998,78.686-6.088,97.684,28.776
		c9.203,16.889,11.278,36.352,5.843,54.802c-5.436,18.45-17.73,33.679-34.62,42.882c-10.721,5.842-22.477,8.811-34.355,8.811
		c-6.834,0-13.708-0.983-20.447-2.968c-18.45-5.436-33.679-17.73-42.882-34.62C82.541,217.856,95.449,174.035,130.315,155.038z"/>
	<path style="fill:#EDA6CD;" d="M163.235,73.319c19.705-10.736,42.412-13.158,63.936-6.817
		c21.524,6.341,39.292,20.685,50.028,40.389c22.164,40.675,7.104,91.801-33.573,113.965c-12.507,6.815-26.224,10.28-40.08,10.279
		c-7.973,0-15.993-1.147-23.855-3.462c-21.525-6.342-39.293-20.685-50.029-40.389C107.499,146.608,122.558,95.483,163.235,73.319z"
		/>
</g>
<path style="fill:#D289B1;" d="M181.446,280.339c-6.834,0-13.708-0.983-20.447-2.968c-4.728-1.392-9.239-3.242-13.495-5.498
	c-2.169,1.455-4.41,2.826-6.733,4.091c-12.731,6.937-26.485,10.228-40.055,10.227c-29.786,0-58.682-15.855-73.909-43.8
	c-20.011-36.724-9.671-81.959,22.46-106.714c-1.84,0.837-3.664,1.736-5.467,2.718C3.123,160.56-11.936,211.685,10.227,252.361
	c15.227,27.945,44.124,43.8,73.909,43.8c13.57,0,27.324-3.29,40.055-10.227c2.322-1.265,4.563-2.636,6.733-4.091
	c4.257,2.255,8.769,4.104,13.495,5.498c6.739,1.985,13.613,2.968,20.447,2.968c11.877,0,23.634-2.969,34.355-8.811
	c3.771-2.055,7.299-4.426,10.587-7.051C200.768,278.356,191.148,280.339,181.446,280.339z"/>
<path style="fill:#EDA6CD;" d="M65.235,35.603c18.766-10.225,40.388-12.531,60.891-6.492c20.5,6.04,37.421,19.7,47.647,38.466
	c21.108,38.738,6.766,87.428-31.973,108.538c-11.912,6.491-24.975,9.791-38.172,9.79c-7.593,0-15.232-1.092-22.718-3.298
	c-20.5-6.04-37.421-19.7-47.647-38.466C12.153,105.401,26.496,56.711,65.235,35.603z"/>
<path style="fill:#D289B1;" d="M120.083,174.256c-7.593,0-15.232-1.092-22.718-3.298c-20.5-6.04-37.421-19.7-47.647-38.466
	C31.796,99.601,39.44,59.546,65.862,35.281c-0.208,0.111-0.42,0.209-0.627,0.322c-38.739,21.108-53.082,69.799-31.973,108.538
	c10.226,18.766,27.147,32.426,47.647,38.466c7.487,2.206,15.126,3.298,22.718,3.298c13.197,0,26.26-3.299,38.172-9.79
	c5.841-3.182,11.115-7.001,15.809-11.309C145.87,171.066,133.042,174.257,120.083,174.256z"/>
<path style="fill:#ECF0F0;" d="M346.057,266.065c-0.556-2.14-1.973-3.955-3.915-5.014l-28.102-15.313
	c-1.941-1.059-4.234-1.266-6.335-0.572c-2.1,0.693-3.819,2.224-4.751,4.229L198.33,474.846c-1.775,3.825-0.128,8.615,3.65,10.506
	c3.602,1.803,8.216,0.55,10.372-2.865l132.725-210.138C346.259,270.48,346.613,268.205,346.057,266.065z"/>
<path style="fill:#7BDFE8;" d="M468.2,138.398c-40.678-22.163-91.801-7.103-113.964,33.573
	c-10.737,19.704-13.157,42.41-6.817,63.935c6.341,21.524,20.685,39.292,40.389,50.029c12.731,6.937,26.485,10.228,40.055,10.227
	c29.786,0,58.682-15.855,73.909-43.8C523.936,211.687,508.877,160.562,468.2,138.398z"/>
<path id="SVGCleanerId_0" style="fill:#7BDFE8;" d="M348.766,73.319c-19.705-10.736-42.412-13.158-63.936-6.817
	c-21.524,6.341-39.292,20.685-50.028,40.389c-22.164,40.675-7.104,91.801,33.573,113.965c12.507,6.815,26.224,10.28,40.08,10.279
	c7.973,0,15.993-1.147,23.855-3.462c21.525-6.342,39.293-20.685,50.029-40.389C404.502,146.608,389.442,95.483,348.766,73.319z"/>
<g>
	<path style="fill:#7BDFE8;" d="M308.59,197.212c-32.93-17.943-74.314-5.75-92.257,27.178c-8.691,15.951-10.651,34.332-5.518,51.757
		c5.133,17.425,16.745,31.807,32.696,40.499c10.125,5.518,21.229,8.322,32.445,8.322c6.455,0,12.946-0.929,19.311-2.803
		c17.425-5.133,31.808-16.745,40.5-32.696C353.711,256.541,341.519,215.154,308.59,197.212z"/>
	<path style="fill:#7BDFE8;" d="M385.873,239.323c-15.952-8.692-34.333-10.65-51.758-5.519
		c-17.425,5.133-31.807,16.745-40.499,32.696c-8.692,15.951-10.651,34.332-5.519,51.757s16.745,31.808,32.696,40.5
		c10.306,5.616,21.44,8.279,32.425,8.279c24.113,0,47.505-12.834,59.831-35.457C430.992,298.651,418.8,257.265,385.873,239.323z"/>
</g>
<g>
	<path style="fill:#58BEC7;" d="M336.777,357.922c-14.316-7.801-25.12-20.194-30.898-35.248c-4.624,0.969-9.29,1.459-13.938,1.459
		c-0.601,0-1.202-0.012-1.803-0.028c5.834,14.783,16.53,26.956,30.654,34.652c10.306,5.616,21.44,8.279,32.425,8.279
		c3.874,0,7.73-0.336,11.524-0.986C355.223,365.423,345.69,362.779,336.777,357.922z"/>
	<path style="fill:#58BEC7;" d="M259.496,315.812c-15.951-8.692-27.563-23.074-32.696-40.499
		c-5.134-17.425-3.173-35.806,5.518-51.757c10.347-18.988,28.492-31.062,48.312-34.458c-25.652-1.692-51.209,11.276-64.297,35.293
		c-8.691,15.951-10.651,34.332-5.518,51.757c5.133,17.425,16.745,31.807,32.696,40.499c10.125,5.518,21.229,8.322,32.445,8.322
		c3.802,0,7.616-0.345,11.41-0.996C277.719,323.315,268.243,320.577,259.496,315.812z"/>
</g>
<path style="fill:#7BDFE8;" d="M381.685,155.038c-34.866-18.998-78.686-6.088-97.684,28.776
	c-9.203,16.889-11.278,36.352-5.843,54.802c5.436,18.45,17.73,33.679,34.62,42.882c10.721,5.842,22.477,8.811,34.355,8.811
	c6.834,0,13.708-0.983,20.447-2.968c18.45-5.436,33.679-17.73,42.882-34.62C429.459,217.856,416.551,174.035,381.685,155.038z"/>
<g>
	<path id="SVGCleanerId_0_1_" style="fill:#7BDFE8;" d="M348.766,73.319c-19.705-10.736-42.412-13.158-63.936-6.817
		c-21.524,6.341-39.292,20.685-50.028,40.389c-22.164,40.675-7.104,91.801,33.573,113.965c12.507,6.815,26.224,10.28,40.08,10.279
		c7.973,0,15.993-1.147,23.855-3.462c21.525-6.342,39.293-20.685,50.029-40.389C404.502,146.608,389.442,95.483,348.766,73.319z"/>
</g>
<path style="fill:#58BEC7;" d="M336.204,281.497c-16.89-9.203-29.184-24.433-34.62-42.882c-1.391-4.724-2.283-9.514-2.696-14.311
	c-2.4-1.034-4.766-2.183-7.089-3.449c-40.676-22.164-55.736-73.289-33.573-113.965c10.736-19.704,28.504-34.048,50.028-40.389
	c3.989-1.175,8.019-2.046,12.063-2.622c-11.731-1.662-23.784-0.826-35.489,2.622c-21.524,6.341-39.292,20.685-50.028,40.389
	c-22.164,40.675-7.104,91.801,33.573,113.965c2.323,1.266,4.689,2.415,7.089,3.449c0.413,4.797,1.305,9.586,2.696,14.311
	c5.436,18.45,17.73,33.679,34.62,42.882c10.721,5.842,22.477,8.811,34.355,8.811c3.904,0,7.821-0.332,11.718-0.977
	C351.022,288.024,343.38,285.408,336.204,281.497z"/>
<path style="fill:#7BDFE8;" d="M446.765,35.603c-18.766-10.225-40.388-12.531-60.891-6.492c-20.5,6.04-37.421,19.7-47.647,38.466
	c-21.108,38.738-6.766,87.428,31.973,108.538c11.912,6.491,24.975,9.791,38.172,9.79c7.593,0,15.232-1.092,22.718-3.298
	c20.5-6.04,37.421-19.7,47.647-38.466C499.847,105.401,485.504,56.711,446.765,35.603z"/>
<path style="fill:#58BEC7;" d="M423.896,182.257c-13.197,0-26.26-3.299-38.172-9.79c-38.739-21.109-53.083-69.799-31.973-108.538
	c9.672-17.75,25.339-30.922,44.354-37.408c-4.099,0.545-8.187,1.399-12.23,2.59c-20.5,6.04-37.421,19.7-47.647,38.466
	c-21.108,38.738-6.766,87.428,31.973,108.538c11.912,6.491,24.975,9.791,38.172,9.79c7.593,0,15.232-1.092,22.718-3.298
	c1.107-0.326,2.199-0.685,3.285-1.055C430.886,182.015,427.386,182.257,423.896,182.257z"/>
<g>
</g>
<g>
</g>
<g>
</g>
<g>
</g>
<g>
</g>
<g>
</g>
<g>
</g>
<g>
</g>
<g>
</g>
<g>
</g>
<g>
</g>
<g>
</g>
<g>
</g>
<g>
</g>
<g>
</g>
</svg>
