<?xml version="1.0" encoding="iso-8859-1"?>
<!-- Generator: Adobe Illustrator 18.0.0, SVG Export Plug-In . SVG Version: 6.00 Build 0)  -->
<!DOCTYPE svg PUBLIC "-//W3C//DTD SVG 1.1//EN" "http://www.w3.org/Graphics/SVG/1.1/DTD/svg11.dtd">
<svg version="1.1" id="Capa_1" xmlns="http://www.w3.org/2000/svg" xmlns:xlink="http://www.w3.org/1999/xlink" x="0px" y="0px"
	 viewBox="0 0 57.679 57.679" style="enable-background:new 0 0 57.679 57.679;" xml:space="preserve">
<g>
	<path style="fill:#E57E25;" d="M52.438,20h-6.742H11.983H5.241c-2.782,3.806-4.401,8.326-4.401,13.179
		c0,13.531,12.536,24.5,28,24.5s28-10.969,28-24.5C56.839,28.326,55.22,23.806,52.438,20z"/>
	<path style="fill:#805333;" d="M27.575,42.035C18.064,42.16,12.839,39,12.839,39s0.5,12.833,16,13c15.5-0.167,16-13,16-13
		s-5.225,3.16-14.735,3.035C29.261,42.024,28.418,42.024,27.575,42.035z"/>
	<ellipse style="fill:#F0C419;" cx="19.339" cy="31" rx="5.5" ry="5"/>
	<ellipse style="fill:#F0C419;" cx="38.339" cy="31" rx="5.5" ry="5"/>
	<path style="fill:#F0C419;" d="M24.839,51.635V47l-6-2v4.311C20.4,50.346,22.362,51.184,24.839,51.635z"/>
	<path style="fill:#F0C419;" d="M33.839,41.907V47l6-2v-4.095C38.214,41.334,36.206,41.716,33.839,41.907z"/>
	<path style="fill:#B49ACA;" d="M42.883,15.428c-1.165,0-2.162,0.744-2.644,1.816c-0.403-0.607-1.052-1.007-1.791-1.007
		c-0.671,0-1.264,0.333-1.671,0.848c-0.448-1.431-1.674-2.466-3.133-2.466s-2.685,1.035-3.133,2.466
		c-0.407-0.515-1-0.848-1.671-0.848c-0.578,0-1.099,0.248-1.494,0.644C27.265,14.725,25.655,13,23.666,13
		c-1.697,0-3.112,1.259-3.545,2.966c-0.467-0.339-1.026-0.538-1.628-0.538c-1.165,0-2.162,0.744-2.644,1.816
		c-0.403-0.607-1.052-1.007-1.791-1.007c-1.225,0-2.217,2.422-2.217,3.763h34C45.839,18.212,44.516,15.428,42.883,15.428z"/>
	<path style="fill:#C9702D;" d="M47.839,20c0-8.837-8.507-16-19-16s-19,7.163-19,16h-4c0-11.028,10.318-20,23-20s23,8.972,23,20
		H47.839z"/>
</g>
<g>
</g>
<g>
</g>
<g>
</g>
<g>
</g>
<g>
</g>
<g>
</g>
<g>
</g>
<g>
</g>
<g>
</g>
<g>
</g>
<g>
</g>
<g>
</g>
<g>
</g>
<g>
</g>
<g>
</g>
</svg>
